<svg id="Layer_1" data-name="Layer 1" xmlns="http://www.w3.org/2000/svg" viewBox="0 0 500 500"><defs><style>.cls-1{fill:#eb5d44;fill-rule:evenodd;}</style></defs><g id="call-24-hours-fill"><path id="Union" class="cls-1" d="M264.68,369.35q47.67,21.3,96.5,21.3a16,16,0,0,0,16.41-16.41V311a13.71,13.71,0,0,0-3.52-9.18,18,18,0,0,0-9-5.67l-53.92-10.94a25.2,25.2,0,0,0-11.13,1,21.85,21.85,0,0,0-9.18,5.27l-36.72,36.73A246.57,246.57,0,0,1,226,309.19a274,274,0,0,1-25.4-22.47,274,274,0,0,1-23.63-26,188,188,0,0,1-18.56-27.93l37.89-38.29a16.31,16.31,0,0,0,4.3-7.42,27.61,27.61,0,0,0,.39-10.55l-10.16-54.69a14.26,14.26,0,0,0-5.07-8.79,14.52,14.52,0,0,0-9.77-3.72H112.71A16,16,0,0,0,96.3,125.76q0,48.84,21.29,96.5T178,309Q217,348.07,264.68,369.35Zm27-166.23H221.32V164.05A15.36,15.36,0,0,1,237,148.42H268.2V132.8H221.32V109.35H276A15.36,15.36,0,0,1,291.64,125v23.44A15.34,15.34,0,0,1,276,164.05H244.76v15.63h46.88Zm85.95,0H354.15V179.68H307.27V109.35h23.44v46.89h23.44V109.35h23.44v46.89h15.63v23.44H377.59Z"/></g></svg>