<svg id="Layer_1" data-name="Layer 1" xmlns="http://www.w3.org/2000/svg" viewBox="0 0 500 500"><defs><style>.cls-1{fill:#004b90;fill-rule:evenodd;}</style></defs><g id="reorder-object-fill"><path id="Union" class="cls-1" d="M273,109.35H259v98.46h98.46V109.35ZM76.11,292.19h98.46v98.46H76.11Zm268.64,19.69,19.69-19.69-56.26-56.25-56.26,56.25,19.69,19.69,22.5-22.23v58.8a14.06,14.06,0,0,1-14.06,14.07H244.89a14.07,14.07,0,0,1-14.07-14.07V151.55a42.2,42.2,0,0,0-42.19-42.2H153.47a42.2,42.2,0,0,0-42.19,42.2V264.06h28.13V151.55a14.06,14.06,0,0,1,14.06-14.07h35.16a14.07,14.07,0,0,1,14.07,14.07v196.9a42.19,42.19,0,0,0,42.19,42.2h35.16a42.19,42.19,0,0,0,42.19-42.2v-58.8Z"/></g></svg>