<svg id="Layer_1" data-name="Layer 1" xmlns="http://www.w3.org/2000/svg" viewBox="0 0 500 500"><defs><style>.cls-1{fill:#d0880c;fill-rule:evenodd;}</style></defs><g id="add-layer-2--layer-add-design-plus-layers-square-box"><path id="Union" class="cls-1" d="M286.57,61.92c35.4,0,61.44,1.18,79.21,2.45a44.58,44.58,0,0,1,41.69,41.69c1.27,17.77,2.44,43.81,2.44,79.21s-1.17,61.44-2.44,79.22A44.56,44.56,0,0,1,367.55,306c.73-15.85,1.25-35.43,1.25-59.07,0-35.86-1.19-62.39-2.5-80.68a65.13,65.13,0,0,0-60.73-60.73c-18.29-1.3-44.82-2.5-80.68-2.5-23.64,0-43.22.52-59.07,1.25a44.55,44.55,0,0,1,41.53-39.92C225.12,63.1,251.16,61.92,286.57,61.92ZM224.89,123.6c35.4,0,61.44,1.18,79.22,2.44a44.58,44.58,0,0,1,41.68,41.7c1.27,17.77,2.45,43.81,2.45,79.21s-1.18,61.44-2.45,79.21a44.57,44.57,0,0,1-41.69,41.69c-17.77,1.27-43.81,2.45-79.21,2.45s-61.44-1.18-79.22-2.45A44.57,44.57,0,0,1,104,326.16c-1.27-17.77-2.45-43.81-2.45-79.21s1.18-61.44,2.45-79.22A44.58,44.58,0,0,1,145.68,126C163.45,124.78,189.49,123.6,224.89,123.6ZM214,185.77c-7.28.73-12,6.77-12.3,14.08-.23,5.4-.47,13-.62,23.27q-11.62.15-23.26.62c-7.31.32-13.36,5-14.08,12.3-.3,3-.5,6.6-.5,10.91s.2,7.92.5,10.91c.72,7.27,6.77,12,14.08,12.3,5.4.23,12.95.46,23.26.61.15,10.31.39,17.87.62,23.27.32,7.3,5,13.36,12.3,14.08,3,.3,6.6.5,10.91.5s7.92-.2,10.91-.5c7.28-.72,12-6.78,12.3-14.08.23-5.4.47-13,.62-23.27q11.64-.13,23.26-.61c7.31-.32,13.37-5,14.09-12.3.29-3,.5-6.6.5-10.91s-.21-7.92-.5-10.91c-.73-7.28-6.78-12-14.09-12.3-5.4-.24-13-.47-23.26-.62q-.15-11.64-.62-23.27c-.32-7.31-5-13.36-12.3-14.08q-5.45-.51-10.91-.5C220.59,185.27,217,185.48,214,185.77Z"/></g></svg>