<svg id="Layer_1" data-name="Layer 1" xmlns="http://www.w3.org/2000/svg" viewBox="0 0 500 500"><defs><style>.cls-1{fill:#d0880c;fill-rule:evenodd;}</style></defs><g id="shipment-upload--shipping-parcel-shipment-upload"><path id="Union" class="cls-1" d="M198.59,90.56c11.85-1.51,31.61-3,64.15-3.22V146.7c-40.29.17-70.24,1.36-89.94,2.48a58.67,58.67,0,0,0-33,12.45c.56-1.33,1.14-2.65,1.76-4a421.27,421.27,0,0,1,26.51-47C174.79,100.32,185.19,92.27,198.59,90.56Zm204.08,67.11c.62,1.31,1.2,2.63,1.75,4a58.61,58.61,0,0,0-33-12.45c-19.69-1.12-49.64-2.31-89.93-2.48V87.34c32.54.23,52.29,1.71,64.15,3.22,13.39,1.71,23.8,9.76,30.51,20.15A421.15,421.15,0,0,1,402.67,157.67Zm-229,208.46c20.9,1.2,53.67,2.47,98.42,2.47s77.52-1.27,98.42-2.47c20.57-1.18,37.54-16.41,39.52-37.44,1.42-15,2.7-36.08,2.7-63.23s-1.28-48.21-2.7-63.23c-2-21-18.95-36.26-39.52-37.44-20.9-1.19-53.67-2.47-98.42-2.47s-77.52,1.28-98.42,2.47c-20.57,1.18-37.54,16.41-39.53,37.44-1.42,15-2.7,36.08-2.7,63.23s1.28,48.21,2.7,63.23C136.15,349.72,153.12,365,173.69,366.13Zm53.06-108.94c-6.07,7.75-1.85,17,8,17.61,4.4.26,9.74.49,16.19.65.46,11.44,1.05,22.94,1.48,30.81.34,6.12,4.29,11.49,10.35,12.43a60.37,60.37,0,0,0,18.72,0c6.07-.95,10-6.32,10.36-12.45.43-7.87,1-19.35,1.47-30.79,6.45-.16,11.79-.39,16.18-.65,9.83-.58,14.06-9.86,8-17.62-3.67-4.68-8.47-10.49-14.67-17.52-9.62-10.9-17-17.4-22.08-21.23a14,14,0,0,0-17.22,0c-5.1,3.83-12.46,10.33-22.08,21.23C235.21,246.69,230.42,252.5,226.75,257.19Z"/></g></svg>