<svg id="Layer_1" data-name="Layer 1" xmlns="http://www.w3.org/2000/svg" viewBox="0 0 500 500"><defs><style>.cls-1{fill:#eb5d44;fill-rule:evenodd;}</style></defs><g id="currency-exchange-alt-fill"><path id="Union" class="cls-1" d="M164.25,238.78V227.5H136V204.94h56.41V182.37H147.32A11.09,11.09,0,0,1,136,171.09V126a11.09,11.09,0,0,1,11.28-11.28h16.93V103.41h22.56v11.28H215v22.56h-56.4v22.56h45.12A11.09,11.09,0,0,1,215,171.09v45.13a11.09,11.09,0,0,1-11.28,11.28H186.81v11.28Zm151.54,39.11h-31l38.08,50.76H301.4v24.82h28.2v12.78H301.4v24.82h28.2v13.16h24.82V391.07h28.2V366.25h-28.2V353.47h28.2V328.65H361.19l38.07-50.76h-31l-26.23,35ZM330,202.79,308.9,223.85l-60.17-60.17,60.17-60.16L330,124.58l-23.77,24.06h2.94a75.2,75.2,0,0,1,75.2,75.21v15H354.24v-15a45.13,45.13,0,0,0-45.12-45.13h-2.94ZM182.77,305.07,203.83,284,264,344.17l-60.17,60.17-21.06-21.06,23.78-24.07h-2.94a75.2,75.2,0,0,1-75.2-75.2V269h30.08v15a45.12,45.12,0,0,0,45.12,45.12h2.94Z"/></g></svg>