<svg id="Layer_1" data-name="Layer 1" xmlns="http://www.w3.org/2000/svg" viewBox="0 0 500 500"><defs><style>.cls-1{fill:#004b90;}</style></defs><path class="cls-1" d="M263.33,182.81c11.7-9.61,24.73-17.77,39.06-22.58,3.19-1.08,12.94-3.91,9.11,2.44-2.3,3.82-6.55,6.31-10.08,8.84a140,140,0,0,0-18.8,16.9c-7.53,7.82-13.53,16.84-20.13,25.4-4.8,6.21-7.47,10.53-12.51,19-2.59,4.35-9.38,15.58-16.48,17.74-3.3,1-6.66.05-9.72-4.46-.19-.29-.4-.58-.58-.87-4.39-6.47-6.63-9.22-11.46-15.9a166.67,166.67,0,0,1-13.42-22.13c-.17-.32-.33-.65-.47-1-.89-2-1.38-4.63.11-6.29a5.55,5.55,0,0,1,3.09-1.51c5.8-1.23,11.83,1.07,16.68,4.47s8.87,7.87,13.34,11.75C241.24,203.44,251.66,192.4,263.33,182.81Z"/><path class="cls-1" d="M253.76,287.3a77.86,77.86,0,0,1-8.16,1.24,80.48,80.48,0,0,1-11.12.31c-.93,0-1.85-.1-2.77-.16a78.27,78.27,0,0,1-52.48-26.14,76.84,76.84,0,0,1-5.57-7A78.33,78.33,0,0,1,288.31,150.68a.79.79,0,0,1,0,1.18q-3,2.65-6.23,5.83a3.86,3.86,0,0,1-5,.32,65.64,65.64,0,1,0-55.6,116.17,67,67,0,0,0,13.49,2c1.05,0,2.09.07,3.12,0,.36,0,.73,0,1.08,0a62.79,62.79,0,0,0,8.72-.74,65.65,65.65,0,0,0,43.19-26.54l.11-.16a65.82,65.82,0,0,0,10.14-54.57,5.62,5.62,0,0,1,1.47-5.4q3.64-3.66,6.82-6.67a.79.79,0,0,1,1.26.29,78.48,78.48,0,0,1-13.41,78.92l-.07.08A78.41,78.41,0,0,1,253.76,287.3Z"/><path class="cls-1" d="M316.87,298.79a16.47,16.47,0,0,0,5.52-3.63c4.95-5,5.43-11.79,5.83-17.27.15-2,.37-5.33.89-6.31.7-.83,3.65-2.29,5.42-3.18,5-2.46,11.12-5.53,13.81-12s.5-12.9-1.22-18.1c-.66-1.93-1.73-5.16-1.61-6.24.34-1,2.46-3.44,3.72-4.91,3.65-4.2,8.2-9.43,8.2-16.53s-4.55-12.34-8.2-16.55c-1.26-1.46-3.37-3.87-3.72-4.89-.12-1.11,1-4.33,1.61-6.26,1.72-5.2,3.89-11.67,1.22-18.09s-8.85-9.58-13.81-12c-1.77-.89-4.72-2.35-5.42-3.17-.52-1-.74-4.3-.89-6.29-.4-5.51-.88-12.35-5.83-17.29s-11.78-5.42-17.27-5.81c-2-.15-5.32-.39-6.29-.9-.84-.69-2.3-3.64-3.17-5.41-2.48-5-5.54-11.12-12.05-13.83a17,17,0,0,0-6.51-1.24c-4.15,0-8.09,1.32-11.59,2.48-2.25.74-4.79,1.6-6.14,1.6h-.1c-1-.34-3.45-2.45-4.91-3.72-4.2-3.65-9.42-8.19-16.53-8.19s-12.35,4.54-16.55,8.19c-1.44,1.27-3.86,3.36-4.89,3.72h-.11c-1.34,0-3.9-.86-6.13-1.6-3.5-1.16-7.46-2.48-11.59-2.48a17,17,0,0,0-6.52,1.24c-6.5,2.71-9.56,8.87-12,13.83-.87,1.77-2.33,4.7-3.17,5.41-1,.51-4.3.75-6.29.9-5.49.39-12.33.87-17.27,5.81s-5.45,11.78-5.83,17.29c-.15,2-.37,5.31-.89,6.29-.7.82-3.65,2.28-5.42,3.17-5,2.46-11.12,5.54-13.83,12s-.5,12.89,1.24,18.09c.65,1.93,1.73,5.17,1.61,6.25-.34,1-2.46,3.44-3.73,4.9-3.64,4.21-8.19,9.44-8.19,16.55s4.55,12.33,8.19,16.53c1.27,1.47,3.38,3.88,3.73,4.89.12,1.13-1,4.33-1.61,6.26-1.74,5.2-3.89,11.67-1.24,18.1s8.87,9.57,13.83,12c1.77.89,4.72,2.35,5.42,3.18.52,1,.74,4.29.89,6.29.38,5.5.88,12.34,5.83,17.29a17.29,17.29,0,0,0,7,4.18l-42.7,82.78,38.92-11.49L169.63,409l46.81-90.73a28.52,28.52,0,0,1,4.84,3.71c4.2,3.65,9.44,8.19,16.55,8.19s12.33-4.54,16.53-8.19c1.46-1.28,3.88-3.37,4.91-3.72h.1a7.18,7.18,0,0,1,1.7.26L307.76,409,321,370.63l38.91,11.49Zm-59.34,10.82a7.79,7.79,0,0,0-.92.24c-6.31,2-12,11.51-18.78,11.51-6.23,0-11.59-8.1-17.33-10.91a9.47,9.47,0,0,0-2.37-.84c-6.89-1.35-16.37,6-22.71,3.35s-7.95-14.59-13.68-18.43c-4.28-2.87-11.8-1.87-17.37-3.19a9.86,9.86,0,0,1-4.88-2.43c-4.89-4.89-1.75-16.47-5.61-22.24s-15.74-7.23-18.42-13.68,4.7-15.81,3.34-22.7c-1.32-6.68-11.75-12.63-11.75-19.7s10.43-13,11.75-19.72c1.36-6.88-6-16.37-3.34-22.69s14.59-8,18.42-13.68.72-17.35,5.61-22.25,16.49-1.75,22.25-5.61,7.24-15.76,13.68-18.43,15.82,4.7,22.71,3.35c6.68-1.32,12.63-11.75,19.7-11.75s13,10.43,19.7,11.75c6.89,1.35,16.37-6,22.71-3.35s7.95,14.58,13.68,18.43,17.35.72,22.25,5.61,1.75,16.47,5.61,22.25,15.74,7.23,18.42,13.68-4.7,15.81-3.34,22.69c1.32,6.68,11.75,12.64,11.75,19.72s-10.43,13-11.75,19.7c-1.36,6.89,6,16.37,3.34,22.7s-14.59,7.95-18.42,13.68-.72,17.35-5.61,22.24a8.6,8.6,0,0,1-3.37,2c-5.65,2-14.19.48-18.88,3.62-5.73,3.84-7.24,15.75-13.68,18.43S264.42,308.26,257.53,309.61Z"/><path class="cls-1" d="M263.33,182.81c11.7-9.61,24.73-17.77,39.06-22.58,3.19-1.08,12.94-3.91,9.11,2.44-2.3,3.82-6.55,6.31-10.08,8.84a140,140,0,0,0-18.8,16.9c-7.53,7.82-13.53,16.84-20.13,25.4-4.8,6.21-7.47,10.53-12.51,19-2.59,4.35-9.38,15.58-16.48,17.74-3.3,1-6.66.05-9.72-4.46-.19-.29-.4-.58-.58-.87-4.39-6.47-6.63-9.22-11.46-15.9a166.67,166.67,0,0,1-13.42-22.13c-.17-.32-.33-.65-.47-1-.89-2-1.38-4.63.11-6.29a5.55,5.55,0,0,1,3.09-1.51c5.8-1.23,11.83,1.07,16.68,4.47s8.87,7.87,13.34,11.75C241.24,203.44,251.66,192.4,263.33,182.81Z"/><path class="cls-1" d="M310.94,182.39a78.48,78.48,0,0,1-13.41,78.92l-.07.08a78.05,78.05,0,0,1-51.86,27.15,80.48,80.48,0,0,1-11.12.31c-.93,0-1.85-.1-2.77-.16a78.27,78.27,0,0,1-52.48-26.14,76.84,76.84,0,0,1-5.57-7A78.33,78.33,0,0,1,288.31,150.68a.79.79,0,0,1,0,1.18q-3,2.65-6.23,5.83a3.86,3.86,0,0,1-5,.32,65.64,65.64,0,1,0-55.6,116.17,67,67,0,0,0,13.49,2c1.05,0,2.09.07,3.12,0,.36,0,.73,0,1.08,0a62.79,62.79,0,0,0,8.72-.74,65.65,65.65,0,0,0,43.19-26.54l.11-.16a65.82,65.82,0,0,0,10.14-54.57,5.62,5.62,0,0,1,1.47-5.4q3.64-3.66,6.82-6.67A.79.79,0,0,1,310.94,182.39Z"/><path class="cls-1" d="M345.51,232c.34-1,2.46-3.44,3.72-4.91,3.65-4.2,8.2-9.43,8.2-16.53s-4.55-12.34-8.2-16.55c-1.26-1.46-3.37-3.87-3.72-4.89-.12-1.11,1-4.33,1.61-6.26,1.72-5.2,3.89-11.67,1.22-18.09s-8.85-9.58-13.81-12c-1.77-.89-4.72-2.35-5.42-3.17-.52-1-.74-4.3-.89-6.29-.4-5.51-.88-12.35-5.83-17.29s-11.78-5.42-17.27-5.81c-2-.15-5.32-.39-6.29-.9-.84-.69-2.3-3.64-3.17-5.41-2.48-5-5.54-11.12-12.05-13.83a17,17,0,0,0-6.51-1.24c-4.15,0-8.09,1.32-11.59,2.48-2.25.74-4.79,1.6-6.14,1.6h-.1c-1-.34-3.45-2.45-4.91-3.72-4.2-3.65-9.42-8.19-16.53-8.19s-12.35,4.54-16.55,8.19c-1.44,1.27-3.86,3.36-4.89,3.72h-.11c-1.34,0-3.9-.86-6.13-1.6-3.5-1.16-7.46-2.48-11.59-2.48a17,17,0,0,0-6.52,1.24c-6.5,2.71-9.56,8.87-12,13.83-.87,1.77-2.33,4.7-3.17,5.41-1,.51-4.3.75-6.29.9-5.49.39-12.33.87-17.27,5.81s-5.45,11.78-5.83,17.29c-.15,2-.37,5.31-.89,6.29-.7.82-3.65,2.28-5.42,3.17-5,2.46-11.12,5.54-13.83,12s-.5,12.89,1.24,18.09c.65,1.93,1.73,5.17,1.61,6.25-.34,1-2.46,3.44-3.73,4.9-3.64,4.21-8.19,9.44-8.19,16.55s4.55,12.33,8.19,16.53c1.27,1.47,3.38,3.88,3.73,4.89.12,1.13-1,4.33-1.61,6.26-1.74,5.2-3.89,11.67-1.24,18.1s8.87,9.57,13.83,12c1.77.89,4.72,2.35,5.42,3.18.52,1,.74,4.29.89,6.29.38,5.5.88,12.34,5.83,17.29a17.29,17.29,0,0,0,7,4.18A42.59,42.59,0,0,0,170.54,301c2,.14,5.32.38,6.29.9.84.71,2.3,3.65,3.17,5.41,2.48,5,5.54,11.12,12,13.82a17,17,0,0,0,6.52,1.24c4.13,0,8.09-1.3,11.59-2.48a26.8,26.8,0,0,1,6.13-1.59h.16a28.52,28.52,0,0,1,4.84,3.71c4.2,3.65,9.44,8.19,16.55,8.19s12.33-4.54,16.53-8.19c1.46-1.28,3.88-3.37,4.91-3.72h.1a7.18,7.18,0,0,1,1.7.26c1.32.3,3,.83,4.44,1.33,3.5,1.18,7.44,2.48,11.59,2.48a17,17,0,0,0,6.51-1.24c6.51-2.7,9.57-8.87,12.05-13.82.87-1.76,2.33-4.7,3.17-5.41,1-.52,4.3-.76,6.29-.9,3.64-.26,7.88-.55,11.75-2.18a16.47,16.47,0,0,0,5.52-3.63c4.95-5,5.43-11.79,5.83-17.27.15-2,.37-5.33.89-6.31.7-.83,3.65-2.29,5.42-3.18,5-2.46,11.12-5.53,13.81-12s.5-12.9-1.22-18.1C346.46,236.34,345.39,233.11,345.51,232Zm-5.31,21c-2.68,6.45-14.59,7.95-18.42,13.68s-.72,17.35-5.61,22.24a8.6,8.6,0,0,1-3.37,2c-5.65,2-14.19.48-18.88,3.62-5.73,3.84-7.24,15.75-13.68,18.43s-15.82-4.7-22.71-3.35a7.79,7.79,0,0,0-.92.24c-6.31,2-12,11.51-18.78,11.51-6.23,0-11.59-8.1-17.33-10.91a9.47,9.47,0,0,0-2.37-.84c-6.89-1.35-16.37,6-22.71,3.35s-7.95-14.59-13.68-18.43c-4.28-2.87-11.8-1.87-17.37-3.19a9.86,9.86,0,0,1-4.88-2.43c-4.89-4.89-1.75-16.47-5.61-22.24s-15.74-7.23-18.42-13.68,4.7-15.81,3.34-22.7c-1.32-6.68-11.75-12.63-11.75-19.7s10.43-13,11.75-19.72c1.36-6.88-6-16.37-3.34-22.69s14.59-8,18.42-13.68.72-17.35,5.61-22.25,16.49-1.75,22.25-5.61,7.24-15.76,13.68-18.43,15.82,4.7,22.71,3.35c6.68-1.32,12.63-11.75,19.7-11.75s13,10.43,19.7,11.75c6.89,1.35,16.37-6,22.71-3.35s7.95,14.58,13.68,18.43,17.35.72,22.25,5.61,1.75,16.47,5.61,22.25,15.74,7.23,18.42,13.68-4.7,15.81-3.34,22.69c1.32,6.68,11.75,12.64,11.75,19.72s-10.43,13-11.75,19.7C335.5,237.18,342.82,246.66,340.2,253Z"/><path class="cls-1" d="M263.33,182.81c11.7-9.61,24.73-17.77,39.06-22.58,3.19-1.08,12.94-3.91,9.11,2.44-2.3,3.82-6.55,6.31-10.08,8.84a140,140,0,0,0-18.8,16.9c-7.53,7.82-13.53,16.84-20.13,25.4-4.8,6.21-7.47,10.53-12.51,19-2.59,4.35-9.38,15.58-16.48,17.74-3.3,1-6.66.05-9.72-4.46-.19-.29-.4-.58-.58-.87-4.39-6.47-6.63-9.22-11.46-15.9a166.67,166.67,0,0,1-13.42-22.13c-.17-.32-.33-.65-.47-1-.89-2-1.38-4.63.11-6.29a5.55,5.55,0,0,1,3.09-1.51c5.8-1.23,11.83,1.07,16.68,4.47s8.87,7.87,13.34,11.75C241.24,203.44,251.66,192.4,263.33,182.81Z"/><path class="cls-1" d="M316.09,213.92a78.05,78.05,0,0,1-18.56,47.39l-.07.08a78.05,78.05,0,0,1-51.86,27.15,80.48,80.48,0,0,1-11.12.31c-.93,0-1.85-.1-2.77-.16a78.27,78.27,0,0,1-52.48-26.14,76.84,76.84,0,0,1-5.57-7A78.33,78.33,0,0,1,288.31,150.68a.79.79,0,0,1,0,1.18q-3,2.65-6.23,5.83a3.86,3.86,0,0,1-5,.32,65.64,65.64,0,1,0-55.6,116.17,67,67,0,0,0,13.49,2c1.05,0,2.09.07,3.12,0,.36,0,.73,0,1.08,0a62.79,62.79,0,0,0,8.72-.74,65.65,65.65,0,0,0,43.19-26.54l.11-.16a65.82,65.82,0,0,0,10.14-54.57,5.62,5.62,0,0,1,1.47-5.4q3.64-3.66,6.82-6.67a.79.79,0,0,1,1.26.29A78,78,0,0,1,316.09,213.92Z"/><path class="cls-1" d="M311.5,162.67c-2.3,3.82-6.55,6.31-10.08,8.84a140,140,0,0,0-18.8,16.9c-7.53,7.82-13.53,16.84-20.13,25.4-4.8,6.21-7.47,10.53-12.51,19-2.59,4.35-9.38,15.58-16.48,17.74-3.3,1-6.66.05-9.72-4.46-.19-.29-.4-.58-.58-.87-4.39-6.47-6.63-9.22-11.46-15.9a166.67,166.67,0,0,1-13.42-22.13c-.17-.32-.33-.65-.47-1-.89-2-1.38-4.63.11-6.29a5.55,5.55,0,0,1,3.09-1.51c5.8-1.23,11.83,1.07,16.68,4.47s8.87,7.87,13.34,11.75c10.17-11.19,20.59-22.23,32.26-31.82s24.73-17.77,39.06-22.58C305.58,159.15,315.33,156.32,311.5,162.67Z"/><path class="cls-1" d="M316.09,213.92a78.05,78.05,0,0,1-18.56,47.39l-.07.08a78.05,78.05,0,0,1-51.86,27.15,80.48,80.48,0,0,1-11.12.31c-.93,0-1.85-.1-2.77-.16a78.27,78.27,0,0,1-52.48-26.14,76.84,76.84,0,0,1-5.57-7A78.33,78.33,0,0,1,288.31,150.68a.79.79,0,0,1,0,1.18q-3,2.65-6.23,5.83a3.86,3.86,0,0,1-5,.32,65.64,65.64,0,1,0-55.6,116.17,67,67,0,0,0,13.49,2c1.05,0,2.09.07,3.12,0,.36,0,.73,0,1.08,0a62.79,62.79,0,0,0,8.72-.74,65.65,65.65,0,0,0,43.19-26.54l.11-.16a65.82,65.82,0,0,0,10.14-54.57,5.62,5.62,0,0,1,1.47-5.4q3.64-3.66,6.82-6.67a.79.79,0,0,1,1.26.29A78,78,0,0,1,316.09,213.92Z"/></svg>