<svg id="Layer_1" data-name="Layer 1" xmlns="http://www.w3.org/2000/svg" viewBox="0 0 500 500"><defs><style>.cls-1{fill:#267832;fill-rule:evenodd;}</style></defs><g id="calculator-1--shop-shopping-pay-payment-store-cash-calculate-math"><path id="Subtract" class="cls-1" d="M157.31,138.51c20.45-1.67,52.9-3.4,99.17-3.4s78.72,1.73,99.17,3.4a41.19,41.19,0,0,1,38.07,38.07c1.67,20.45,3.4,52.91,3.4,99.17s-1.73,78.72-3.4,99.17A41.19,41.19,0,0,1,355.65,413c-20.45,1.66-52.91,3.4-99.17,3.4s-78.72-1.74-99.17-3.4a41.21,41.21,0,0,1-38.08-38.08c-1.66-20.45-3.4-52.9-3.4-99.17s1.74-78.72,3.4-99.17A41.2,41.2,0,0,1,157.31,138.51Zm175.06,42.32c-14.35-.89-39.23-2-75.89-2s-61.54,1.08-75.89,2a20.19,20.19,0,0,0-19,19C161,208.58,160.4,221.2,160,238a15.54,15.54,0,0,0,15.57,15.88h161.8A15.55,15.55,0,0,0,353,238c-.4-16.79-1-29.41-1.55-38.13A20.19,20.19,0,0,0,332.37,180.83ZM175.22,294.5a12.51,12.51,0,0,0,0,25h25a12.51,12.51,0,0,0,0-25Zm-12.5,68.76a12.5,12.5,0,0,1,12.5-12.5h25a12.5,12.5,0,1,1,0,25h-25A12.49,12.49,0,0,1,162.72,363.26ZM244,294.5a12.51,12.51,0,0,0,0,25h25a12.51,12.51,0,0,0,0-25Zm-12.5,68.76a12.5,12.5,0,0,1,12.5-12.5h25a12.5,12.5,0,0,1,0,25H244A12.49,12.49,0,0,1,231.48,363.26Zm81.26-68.76a12.51,12.51,0,0,0,0,25h25a12.51,12.51,0,0,0,0-25Zm-12.5,68.76a12.5,12.5,0,0,1,12.5-12.5h25a12.5,12.5,0,0,1,0,25h-25A12.49,12.49,0,0,1,300.24,363.26Z"/></g></svg>