<svg id="Layer_1" data-name="Layer 1" xmlns="http://www.w3.org/2000/svg" viewBox="0 0 500 500"><defs><style>.cls-1{fill:#267832;}</style></defs><path class="cls-1" d="M176.21,271.62a73.8,73.8,0,0,1,65.94-73.38,52.11,52.11,0,0,0,2.61-16.54c0-27.44-16.81-51.21-46.24-51.43-29.43.22-46.22,24-46.22,51.43a51.6,51.6,0,0,0,15.38,37.11c5.82,5.3,10.06,12.2,10.06,19.07s-2.65,13.79-19.08,20.69c-4.77,1.88-9.48,3.85-13.95,5.94a1.51,1.51,0,0,0-.29.13c-19.31,9.05-34.63,20.55-35.07,39,0,14.85,10.6,28.11,24.93,28.11h72.91A73.75,73.75,0,0,1,176.21,271.62Z"/><path class="cls-1" d="M355.34,264.53s0,0,0,0c-4.49-2.09-9.18-4.06-14-5.94-16.44-6.9-19.09-13.79-19.09-20.69s4.24-13.77,10.08-19.07a51.67,51.67,0,0,0,15.37-37.11c0-27.44-16.8-51.21-46.23-51.43-29.43.22-46.22,24-46.22,51.43a52.39,52.39,0,0,0,2.6,16.54,72.56,72.56,0,0,1,31.5,10.95,73.81,73.81,0,0,1,3.45,122.54h72.91c14.33,0,24.93-13.26,24.93-28.11C390.21,285.12,374.75,273.59,355.34,264.53Z"/><path class="cls-1" d="M282.07,220.78a58.9,58.9,0,0,0-15.95-7.11,60.16,60.16,0,0,0-70.77,32.94,59.23,59.23,0,0,0-5.46,25,60.13,60.13,0,0,0,29.73,51.88,23.39,23.39,0,0,0,17.61,8.23h25.54a23.39,23.39,0,0,0,17.61-8.23,60.12,60.12,0,0,0,1.69-102.72ZM247.3,311.4a4.28,4.28,0,0,1-1.27-3v-5a45.65,45.65,0,0,1-18.48-4.89,4.81,4.81,0,0,1-2.72-4.94l.7-5.59a4.76,4.76,0,0,1,6.74-3.73,36.86,36.86,0,0,0,15.73,4c6,0,10.11-1.61,10.11-4.86,0-6.88-17.92-2.74-27.52-9.25-3.51-2.37-5.91-6.17-5.91-12.45a22.16,22.16,0,0,1,2-9.53c3.16-6.66,9.83-11.4,19.3-12.64v-4.62a4.32,4.32,0,0,1,8.63,0v4.36a50.47,50.47,0,0,1,16,3.75,5.19,5.19,0,0,1,3,5.56l-.56,3.72a46.32,46.32,0,0,1-8.45,5h0a33.33,33.33,0,0,0-12.13-2.37c-7.23,0-10,2.45-10,4.9,0,.17,0,.34,0,.49.35,2,3,2.92,6.56,3.57.85.15,1.77.3,2.72.43l0,0c9.08,1.32,21.75,2.61,23.52,14.57a18.66,18.66,0,0,1,.22,3c0,11.55-8.75,19.06-21,20.95v5.56a4.32,4.32,0,0,1-4.33,4.3A4.27,4.27,0,0,1,247.3,311.4Z"/></svg>