<svg
  id="Layer_1"
  data-name="Layer 1"
  xmlns="http://www.w3.org/2000/svg"
  viewBox="0 0 960 766.63"
>
  <defs>
    <style>
      .cls-1 {
        fill: #bd6455;
      }
    </style>
  </defs>
  <path
    id="Shape"
    class="cls-1"
    d="M808.85,291.68A325.35,325.35,0,0,1,744.11,339c-45.7,26.65-129.81,55.27-197.39,78.26l-21.91,7.47,84.79-47.66a13,13,0,0,0,1.15-.74L632,363.77l1.21-.71a818.13,818.13,0,0,0,77.11-51,613,613,0,0,0,64.42-54.47A254.69,254.69,0,0,0,839.5,155.9a148.17,148.17,0,0,0,4-16.9,145.49,145.49,0,0,1-34.65,152.68ZM479.41,480.12l-9.73,9.72a79.08,79.08,0,0,0-22.93-40.71,84,84,0,0,0-41-22.8l9.88-9.89a11.62,11.62,0,0,0,1.05-.93,45,45,0,0,1,33-13.28A42.79,42.79,0,0,1,480.24,415a9.69,9.69,0,0,0,1.21,1.1,45.18,45.18,0,0,1-1.21,63,10.22,10.22,0,0,0-.83,1ZM295.05,664.41c-11,11-34.81,5.68-52.08-11.58a62,62,0,0,1-16.54-29.11,24.5,24.5,0,0,1,4.9-22.93l146.11-146,.2-.2a20.53,20.53,0,0,1,15.12-5.69h.06a56.72,56.72,0,0,1,37.05,17.6c14.4,13.45,22.77,38.62,12.07,51l-.69.79ZM505.39,407.59,816.91,96a75,75,0,0,1-.46,52.91,230.14,230.14,0,0,1-58.73,91.62,591.42,591.42,0,0,1-61.83,52.23,797.85,797.85,0,0,1-74.28,49.22l-1.21.71L598.08,355.8c-.19.11-.52.32-.82.54l-91.67,51.51ZM799.84,78.92,488.4,390.46c-.73-.51-1.41-1-2.16-1.54l67.29-114.11A795.5,795.5,0,0,1,603.1,199.9a597.92,597.92,0,0,1,52.22-61.81C705.55,87.93,767.5,63.63,799.81,78.92Zm-243,72.73a328.85,328.85,0,0,1,47.34-64.71A145.93,145.93,0,0,1,707.3,43.74H708a144.54,144.54,0,0,1,48.77,8.57A237.44,237.44,0,0,0,638.25,121.1a624,624,0,0,0-54.45,64.39,821.41,821.41,0,0,0-51.43,77.64l-57.62,97.75,43.44-123.61c.09-.22.16-.45.23-.66a508.49,508.49,0,0,1,38.4-85ZM224.38,140.79c-8.41-4.74-16.49-9.33-23.73-13.89a46.47,46.47,0,1,1,57.62-72.18,48.21,48.21,0,0,1,6.44,8.08c4.59,7.24,9.17,15.34,13.94,23.75a242.17,242.17,0,0,0,52,70.39c-6.25,5.49-12.47,11.21-18.6,17.34s-11.85,12.35-17.35,18.61a241.88,241.88,0,0,0-70.34-52.08Zm78.73,79.42A368.9,368.9,0,0,1,358,165.28a106.81,106.81,0,0,1,40.88-23.77l94.25,94.24L443.05,378.3A68.88,68.88,0,0,0,409,390.7L279.37,261.07a106.51,106.51,0,0,1,23.74-40.84Zm-111,483.52a45.33,45.33,0,0,1,.36-64L203,629.15a85.65,85.65,0,0,0,22.93,40.72,82.91,82.91,0,0,0,40.64,23l-10.47,10.48a45.34,45.34,0,0,1-64.07.38Zm312.9-217a68.93,68.93,0,0,0,12.21-33.79c11.61-4,24-8.27,37.3-12.79,33.35-11.34,70.65-24.05,105.68-37.3l94.13,94.13c-.76,8.14-15.41,35.43-49.84,69.74s-61.55,49-69.71,49.79ZM841.07,703.23a46.1,46.1,0,0,1-37.76,13.28,46.7,46.7,0,0,1-34.39-21.38c-4.59-7.24-9.17-15.34-13.94-23.75a242.43,242.43,0,0,0-52-70.31c8.55-7.52,15.26-14.08,18.53-17.36s9.86-10,17.39-18.58a242.31,242.31,0,0,0,70.31,52c8.45,4.83,16.52,9.35,23.71,13.92a48.14,48.14,0,0,1,8.11,6.46,46.51,46.51,0,0,1,0,65.74Z"
  />
</svg>
