<svg
  id="Layer_1"
  data-name="Layer 1"
  xmlns="http://www.w3.org/2000/svg"
  viewBox="0 0 960 766.63"
>
  <defs>
    <style>
      .cls-1 {
        fill: #e85b27;
      }
    </style>
  </defs>
  <path
    class="cls-1"
    d="M816.51,90.82a19.36,19.36,0,0,0-25.39-10.25l-67,28.46a19.39,19.39,0,0,0-10.44,10.75L652,274.5H533.64a8.76,8.76,0,0,0-8.75,8.74V683.87a8.76,8.76,0,0,0,8.75,8.75H770.53a8.77,8.77,0,0,0,8.76-8.75V283.24a8.77,8.77,0,0,0-8.76-8.74H693.62l53.15-133,59.49-25.28a19.35,19.35,0,0,0,10.25-25.37ZM732.72,483.56a80.64,80.64,0,1,1-80.64-80.63,80.73,80.73,0,0,1,80.64,80.63Z"
  />
  <path
    class="cls-1"
    d="M429.13,320.87a94.66,94.66,0,0,0-39.91-77.11A159.44,159.44,0,0,1,326,149.27H271.74a159.44,159.44,0,0,1-63.24,94.5,94.66,94.66,0,0,0-39.92,77.1v2H429.13Z"
  />
  <path
    class="cls-1"
    d="M429.13,565.31H168.56c0,36.78,0,66.28,0,77.67a28.52,28.52,0,0,0,12,23.28l32.57,23a18.87,18.87,0,0,0,21.69,0c25.45-18,38-29.87,64-29.87,26.12,0,39.25,12.44,64,29.89a18.83,18.83,0,0,0,21.64,0l32.59-23A28.51,28.51,0,0,0,429.16,643l0-17V565.31Z"
  />
  <path
    class="cls-1"
    d="M256.38,110.57h85a10.39,10.39,0,0,0,10.38-10.39V64.5a10.38,10.38,0,0,0-10.38-10.38h-85A10.38,10.38,0,0,0,246,64.5v35.68A10.39,10.39,0,0,0,256.38,110.57Z"
  />
  <path class="cls-1" d="M168.57,361.61H429.13v165H168.57Z" />
  <circle class="cls-1" cx="652.08" cy="483.56" r="41.94" />
</svg>
