<svg
  id="Layer_1"
  data-name="Layer 1"
  xmlns="http://www.w3.org/2000/svg"
  viewBox="0 0 960 766.63"
>
  <defs>
    <style>
      .cls-1 {
        fill: #e85b27;
      }
    </style>
  </defs>
  <path
    class="cls-1"
    d="M859.05,239.11a333.85,333.85,0,0,0-54.83-63.56C760.23,136,684.63,90.68,574.2,99a21.07,21.07,0,0,0-6.1,1.41L219.33,239H855.22c1.29,0,2.56.05,3.83.13Z"
  />
  <path
    class="cls-1"
    d="M729.41,490.75a26.64,26.64,0,1,0,26.64,26.64A26.67,26.67,0,0,0,729.41,490.75Z"
  />
  <path
    class="cls-1"
    d="M375.19,391.94a28.33,28.33,0,1,0,28.33,28.33A28.36,28.36,0,0,0,375.19,391.94Z"
  />
  <path
    class="cls-1"
    d="M855.22,280.48H188.48a20.75,20.75,0,0,0-20.75,20.75v90.94a20.76,20.76,0,0,0,20.76,20.75,26.64,26.64,0,1,1,0,53.28A20.75,20.75,0,0,0,167.73,487V606.37A62.32,62.32,0,0,0,230,668.62h195a20.76,20.76,0,0,0,20.53-23.77,40.83,40.83,0,1,1,81.22-6,42.22,42.22,0,0,1-.44,6,20.75,20.75,0,0,0,20.52,23.77h267A62.32,62.32,0,0,0,876,606.37V301.23a20.75,20.75,0,0,0-20.75-20.75ZM283,573.18c-14.55.16-24.92-15.3-19.16-28.69,6.52-16.06,29.39-17.2,37.45-1.84,7.45,13.6-2.81,30.65-18.29,30.53Zm92.21-83.08A69.83,69.83,0,1,1,445,420.27,69.91,69.91,0,0,1,375.19,490.1ZM737.86,325.25c6.12-15.2,27.44-17.31,36.41-3.58,9.22,13.57-.85,32.37-17.25,32.25-14.53.19-24.94-15.33-19.16-28.67Zm-202.17,84c-15.47.15-25.74-16.95-18.29-30.52,8-15.36,31-14.23,37.45,1.84C560.63,393.92,550.2,409.47,535.69,409.26ZM729.41,585.53a68.15,68.15,0,1,1,68.14-68.14A68.22,68.22,0,0,1,729.41,585.53Z"
  />
</svg>
