<svg
  id="Layer_1"
  data-name="Layer 1"
  xmlns="http://www.w3.org/2000/svg"
  viewBox="0 0 960 766.63"
>
  <defs>
    <style>
      .cls-1 {
        fill: #e85b27;
      }
    </style>
  </defs>
  <path
    class="cls-1"
    d="M526.13,241.15,510.51,107.84c-3.13-22.91,19.79-40.62,41.66-33.33L660.48,112c21.87,7.29,28.12,35.41,12.5,51l-92.69,95.81C560.5,277.6,529.25,267.18,526.13,241.15Zm-166.64,3.12a31.25,31.25,0,0,0,53.12-12.5l28.12-97.89C447,111,427.19,90.13,404.28,94.3l-100,19.79c-24,5.2-33.33,33.32-16.67,52.07Zm6.25,61.45-89.56-49a30.69,30.69,0,0,0-45.83,27.08l-1,38.53h151C378.24,316.13,373,309.88,365.74,305.72Zm22.92,16.66h151l-48.95-80.19c-12.5-19.79-41.66-19.79-53.12,0Zm388.46,30.2c-5.2-5.2-13.54-9.37-21.87-9.37H192.86c-17.7,0-31.24,13.54-31.24,31.24v20.83a270.53,270.53,0,0,0,125,228.08v53.12c0,17.7,13.54,31.24,31.25,31.24H630.28c17.7,0,31.24-13.54,31.24-31.24V623.36a270.51,270.51,0,0,0,125-228.08V374.45C786.5,366.12,783.37,357.79,777.12,352.58ZM657.35,246.35l-13.54,29.16a53.45,53.45,0,0,1,25,47.91h86.44c8.33,0,15.62,2.08,22.91,5.21a16.74,16.74,0,0,0-4.16-7.29l-63.53-80.19C695.89,221.36,666.73,224.48,657.35,246.35ZM623,289.05l-88.53-14.58,27.08,44.79c1,1,1,2.08,2.08,3.12H649C650.06,306.76,639.65,291.14,623,289.05Z"
  />
</svg>
