<svg
  id="Layer_1"
  data-name="Layer 1"
  xmlns="http://www.w3.org/2000/svg"
  viewBox="0 0 960 766.63"
>
  <defs>
    <style>
      .cls-1 {
        fill: #e85b27;
      }
    </style>
  </defs>
  <path
    class="cls-1"
    d="M760.77,366.45a79.66,79.66,0,0,1-68.22-93.51,17.71,17.71,0,0,0-8-18.25A73.83,73.83,0,0,1,650.24,184a17.7,17.7,0,0,0-25.43-17.83,88.5,88.5,0,0,1-116-35.68,87.34,87.34,0,0,1-11.48-40.14,17.71,17.71,0,0,0-17.34-17A302.17,302.17,0,1,0,776.19,384.56a17.7,17.7,0,0,0-15.42-18.11Zm-383-153.35a17.7,17.7,0,1,1,5,19.78A17.85,17.85,0,0,1,377.81,213.1Zm5.71,286.42a17.7,17.7,0,1,1-18.1-10.82A17.89,17.89,0,0,1,383.52,499.52Zm-94.29-97.23a62.81,62.81,0,1,1,85.64,23.61A62.88,62.88,0,0,1,289.23,402.29Zm257.31,174.3a60,60,0,1,1,22.55-81.77A60,60,0,0,1,546.54,576.59ZM656.38,454.66A17.71,17.71,0,1,1,640,442.53,17.89,17.89,0,0,1,656.38,454.66Zm-78.24-52.4a62.26,62.26,0,1,1,23.4-84.88A62.33,62.33,0,0,1,578.14,402.26Z"
  />
  <path
    class="cls-1"
    d="M504.8,503.07a24.57,24.57,0,1,0,33.5,9.23,24.59,24.59,0,0,0-33.5-9.23Z"
  />
  <path
    class="cls-1"
    d="M330.32,347.44a27.41,27.41,0,1,0,37.37,10.31A27.45,27.45,0,0,0,330.32,347.44Z"
  />
  <circle class="cls-1" cx="547.4" cy="348.12" r="26.85" />
</svg>
