<svg
  id="Layer_1"
  data-name="Layer 1"
  xmlns="http://www.w3.org/2000/svg"
  viewBox="0 0 960 766.63"
>
  <defs>
    <style>
      .cls-1 {
        fill: #e85e27;
      }
    </style>
  </defs>
  <g id="Makeup">
    <path
      class="cls-1"
      d="M629.32,644.11h72.52c14.85,0,14.85-12.49,22.73-44.58H606.14c9.07,34.17,8.92,44.58,23.18,44.58Z"
    />
    <path
      class="cls-1"
      d="M754.73,602.8l-9.21,37.29a44.57,44.57,0,0,1-43.68,33.73H629.32a44.58,44.58,0,0,1-43.24-33.73c-10.84-43.39-8.91-35.66-10.1-40.56H457.55v74.29a44.58,44.58,0,0,0,44.58,44.58H829a44.58,44.58,0,0,0,44.58-44.58V599.53C742.1,599.53,754.73,598,754.73,602.8Z"
    />
    <path class="cls-1" d="M190.09,421.22h208V465.8h-208Z" />
    <path
      class="cls-1"
      d="M190.09,673.82a44.58,44.58,0,0,0,44.58,44.58H353.54a44.58,44.58,0,0,0,44.58-44.58V495.51h-208Z"
    />
    <path class="cls-1" d="M219.81,272.63H368.4V391.5H219.81Z" />
    <path
      class="cls-1"
      d="M353.54,137.41c-29.72,34.47-80.69,59.44-118.87,38.34v67.16H353.54Z"
    />
    <path
      class="cls-1"
      d="M324.71,124.93C352.8,96.7,362,60.29,345.07,43.35s-53.34-7.72-81.58,20.36-37.29,64.64-20.35,81.58S296.48,153.76,324.71,124.93Z"
    />
    <path
      class="cls-1"
      d="M843.89,569.81a29.72,29.72,0,0,0-29.72-29.72H517a29.72,29.72,0,0,0-29.72,29.72Z"
    />
    <path
      class="cls-1"
      d="M726.65,510.37c124.82-64.19,78.16-252.6-61.07-252.6s-185.89,188.56-61.07,252.6Z"
    />
    <path
      class="cls-1"
      d="M553.39,510.37a163.45,163.45,0,1,1,231.06-6.68q-3.24,3.44-6.68,6.68c34,0,43.38-1.19,56,3.42,67.61-92.9,47.1-223-45.8-290.61S565,176.09,497.38,269a208,208,0,0,0,0,244.8c13.07-4.75,22.43-3.42,56-3.42Z"
    />
  </g>
</svg>
