<svg
  id="Layer_1"
  data-name="Layer 1"
  xmlns="http://www.w3.org/2000/svg"
  viewBox="0 0 960 766.63"
>
  <defs>
    <style>
      .cls-1 {
        fill: #e85b27;
      }
    </style>
  </defs>
  <path
    class="cls-1"
    d="M484.78,424.07h48.35L482,528.36,489.28,478a14.61,14.61,0,0,0-3.38-11.24,14.34,14.34,0,0,0-10.68-5.06H426.87l51.16-104-7.31,50.32a14.93,14.93,0,0,0,3.38,11.24A14,14,0,0,0,484.78,424.07ZM638,473.55A114.73,114.73,0,0,1,654.28,532V677.9a57,57,0,0,1-56.78,56.78H362.78a57.1,57.1,0,0,1-57.06-57.06V532a119.11,119.11,0,0,1,16-58.75l.85-.84c19.67-33.73,20.8-75.33,2.24-109.63-16.3-30.07-23-66.05-16.58-104a156.42,156.42,0,0,1,36.26-76.18A55.92,55.92,0,0,0,368.12,188H591.31a55,55,0,0,0,23.62-5.34A158.32,158.32,0,0,1,635.45,362,115,115,0,0,0,638,473.55Zm-74.77-68.31A19.94,19.94,0,0,0,546.06,396H500.8l12.37-84.89a19.8,19.8,0,0,0-14.06-21.92,20.16,20.16,0,0,0-23.89,10.4L396,461.18a19.73,19.73,0,0,0,18,28.67h45L446.83,575A20.17,20.17,0,0,0,460.89,597a21.4,21.4,0,0,0,5.9.84,19.76,19.76,0,0,0,17.71-11.24l79.55-161.63A20.4,20.4,0,0,0,563.21,405.24Zm55.93-150.39A126.2,126.2,0,0,0,584,194.7a14,14,0,1,0-19.4,20.24,103.72,103.72,0,0,1,27.55,46.94,13.79,13.79,0,0,0,13.49,10.68,14.53,14.53,0,0,0,13.49-17.71ZM591.23,104.2H368.09a27.81,27.81,0,0,0,0,55.62H591.23a27.81,27.81,0,0,0,0-55.62ZM519.07,31.94H440.93a9.43,9.43,0,0,0-9.56,9.28V76.08h97.26V41.22A9.61,9.61,0,0,0,519.07,31.94Z"
  />
</svg>
