<svg
  id="Layer_1"
  data-name="Layer 1"
  xmlns="http://www.w3.org/2000/svg"
  viewBox="0 0 960 766.63"
>
  <defs>
    <style>
      .cls-1 {
        fill: #e85b27;
      }
    </style>
  </defs>
  <path
    class="cls-1"
    d="M304.22,281.77a515.42,515.42,0,0,0,147.23,37.28l-23.83-41.28-81.27,4.88a16.37,16.37,0,0,1-2-32.69l64.92-3.89-14.44-25-81.26,4.88a16.37,16.37,0,1,1-2-32.69l64.93-3.89-18.14-31.42A65.5,65.5,0,1,0,245,223.43l25.6,44.33Z"
  />
  <path
    class="cls-1"
    d="M503.64,321.66a519.84,519.84,0,0,0,64.61-4,88.39,88.39,0,0,0,.89-12.37,87.32,87.32,0,0,0-131.36-75.4l52.9,91.62Q497.15,321.65,503.64,321.66Z"
  />
  <path
    class="cls-1"
    d="M590.32,253.91c12.1-32,14.32-56.07,14.35-56.44a16.37,16.37,0,1,1,32.63,2.77c-.2,2.35-4.75,51.77-35.44,106.16,0,2-.1,4-.22,6a517.19,517.19,0,0,0,101.42-30.58l19.71-8.21a63.1,63.1,0,0,0-10.72-17.48,62.71,62.71,0,0,0-25.57-120,61.58,61.58,0,0,0-16.23,2.19,62.52,62.52,0,0,0-120-1.9c-1.93-.19-3.83-.29-5.73-.29a62.86,62.86,0,0,0-61.25,49.14A120.23,120.23,0,0,1,590.32,253.91Z"
  />
  <path
    class="cls-1"
    d="M715.66,312a548.41,548.41,0,0,1-212,42.41,548.41,548.41,0,0,1-212-42.41,16.37,16.37,0,0,0-22.57,16.86c5.45,50.91,25.2,237.17,29.61,278.55a49,49,0,0,0,48.85,43.9H659.78a49,49,0,0,0,48.84-43.9C713,566,732.78,379.77,738.24,328.86A16.38,16.38,0,0,0,715.66,312ZM629.17,542.16a16.37,16.37,0,0,1-16.37,16.37H394.48a16.37,16.37,0,0,1-16.37-16.37V454.83a16.37,16.37,0,0,1,16.37-16.37H612.8a16.37,16.37,0,0,1,16.37,16.37Z"
  />
  <path class="cls-1" d="M410.86,471.2H596.42v54.58H410.86Z" />
</svg>
