<svg
  id="Layer_1"
  data-name="Layer 1"
  xmlns="http://www.w3.org/2000/svg"
  viewBox="0 0 960 766.63"
>
  <defs>
    <style>
      .cls-1 {
        fill: #e85b27;
      }
    </style>
  </defs>
  <path
    class="cls-1"
    d="M363.35,518.23c0,68.6,28.13,142.07,73.48,191.44-27.84,10.33-58,15.5-89.26,15.5-126.57,0-225.88-87.25-225.88-198.33,0-41.9,13.49-81.79,39-116,.58-.57.86-1.15,1.44-1.43,53.09-74,53.67-134.61,53.67-136.91,0-67.16,59.12-121.4,131.74-121.4,72.9,0,131.74,54.24,131.74,120.83,0,4.3.57,32.14,17.5,72.61C414.15,365,363.35,428.69,363.35,518.23Z"
  />
  <path
    class="cls-1"
    d="M463.81,36.34c-79.13,0-143.51,64.38-143.51,143.51a28.7,28.7,0,0,0,57.4,0,86.22,86.22,0,0,1,86.11-86.11,28.7,28.7,0,0,0,0-57.4Z"
  />
  <path
    class="cls-1"
    d="M722.12,266C643,266,578.61,330.33,578.61,409.46a28.7,28.7,0,0,0,57.4,0,86.22,86.22,0,0,1,86.11-86.11,28.7,28.7,0,1,0,0-57.4Z"
  />
  <path
    class="cls-1"
    d="M657.57,380.75a133,133,0,0,0-50.26,9.79,133,133,0,0,0-50.25-9.79c-94.34,0-150.65,51.38-150.65,137.43,0,95.71,65.81,207,150.65,207a132,132,0,0,0,50.22-9.82,132.76,132.76,0,0,0,50.29,9.82c84.84,0,150.65-111.28,150.65-207,0-86-56.31-137.43-150.65-137.43Z"
  />
</svg>
