<svg
  id="Layer_1"
  data-name="Layer 1"
  xmlns="http://www.w3.org/2000/svg"
  viewBox="0 0 960 766.63"
>
  <defs>
    <style>
      .cls-1 {
        fill: #bd6455;
      }
    </style>
  </defs>
  <path
    class="cls-1"
    d="M751.62,367.05a65.53,65.53,0,0,0-65.51,65.5v32.84h-393V432.55a65.5,65.5,0,0,0-131,0v262h131V661.72h393v32.83h131v-262A65.42,65.42,0,0,0,751.62,367.05Z"
  />
  <path
    class="cls-1"
    d="M685.94,104.87h-393a65.52,65.52,0,0,0-65.5,65.5v131a131.43,131.43,0,0,1,127,98.34H624.63c14.5-56.42,65.85-98.34,126.81-98.34v-131A65.52,65.52,0,0,0,685.94,104.87Z"
  />
</svg>
