<svg
  id="Layer_1"
  data-name="Layer 1"
  xmlns="http://www.w3.org/2000/svg"
  viewBox="0 0 960 766.63"
>
  <defs>
    <style>
      .cls-1 {
        fill: #e85b27;
      }
    </style>
  </defs>
  <path
    class="cls-1"
    d="M239.27,586.09l-67.51,67.52a24,24,0,0,0,34,34l67.51-67.52A60.81,60.81,0,0,1,239.27,586.09Z"
  />
  <path
    class="cls-1"
    d="M777.63,87.32l-.6-5-5-.61c-40.36-4.88-87.19,13.84-122.22,48.87S596,212.43,600.93,252.79l.6,5,5,.61a108.43,108.43,0,0,0,12.93.76c37.15,0,77.95-18.29,109.3-49.63C763.79,174.51,782.52,127.68,777.63,87.32Z"
  />
  <path
    class="cls-1"
    d="M606,43.1a19.5,19.5,0,0,0-27.57,0L520.2,101.37C489.77,123.8,467.82,163.93,462,208.84c-6.36,49.13,7.4,97.65,35.91,126.64l3.54,3.59,4.34-2.57c34.95-20.78,60.61-64.2,67-113.33,4.79-36.93-1.81-73.53-17.49-101.73L606,70.67A19.5,19.5,0,0,0,606,43.1Z"
  />
  <path
    class="cls-1"
    d="M301.82,331.57,298.28,328l-4.34,2.58c-34.94,20.77-60.61,64.19-67,113.32s7.4,97.65,35.91,126.63l3.53,3.6,4.34-2.58c34.95-20.77,60.61-64.19,67-113.32S330.33,360.56,301.82,331.57Z"
  />
  <path
    class="cls-1"
    d="M419.35,214.05l-3.54-3.6L411.47,213c-35,20.77-60.61,64.19-67,113.32S351.9,424,380.41,453l3.54,3.59,4.34-2.57c34.95-20.78,60.61-64.2,67-113.33S447.85,243,419.35,214.05Z"
  />
  <path
    class="cls-1"
    d="M527.77,557.52c-29-28.51-77.52-42.27-126.64-35.91s-92.55,32-113.32,67l-2.58,4.33,3.6,3.54c24.3,23.91,62.34,37.44,103,37.44a183.91,183.91,0,0,0,23.67-1.53c49.13-6.36,92.55-32,113.32-67l2.58-4.33Z"
  />
  <path
    class="cls-1"
    d="M645.29,440c-29-28.51-77.51-42.27-126.63-35.91s-92.56,32-113.33,67l-2.57,4.34,3.59,3.54c24.31,23.9,62.35,37.44,103,37.44A185.76,185.76,0,0,0,533,514.84c49.13-6.36,92.55-32,113.32-67l2.58-4.34Z"
  />
  <path
    class="cls-1"
    d="M816.24,253.3a19.5,19.5,0,0,0-27.57,0L737.9,304.07c-28.21-15.68-64.8-22.28-101.74-17.5-49.12,6.36-92.55,32-113.32,67l-2.57,4.34,3.59,3.54c24.31,23.9,62.35,37.44,103,37.44a185.76,185.76,0,0,0,23.68-1.53c44.91-5.82,85-27.77,107.47-58.19l58.27-58.27A19.5,19.5,0,0,0,816.24,253.3Z"
  />
</svg>
