<svg
  id="Layer_1"
  data-name="Layer 1"
  xmlns="http://www.w3.org/2000/svg"
  viewBox="0 0 960 766.63"
>
  <defs>
    <style>
      .cls-1 {
        fill: #59c95e;
      }
    </style>
  </defs>
  <g id="layer1">
    <path
      id="path2361-7"
      class="cls-1"
      d="M637.09,32.24h0a12.81,12.81,0,0,0-3.2.4l-367,92.65V351l244.05,61L434.73,718.21a13,13,0,0,0,12.64,16.18H544.1a13,13,0,0,0,12.35-8.91l93.92-281.76c45.39-2.89,92-26.17,128.8-60.65,39.34-36.89,67.71-87.34,67.71-141.86,0-54.19-26.15-106.1-65-144.68s-91-64.29-144.76-64.29ZM159.26,75.31a13,13,0,0,0-14.9,10.85,13.73,13.73,0,0,0-.15,2V383.43A13,13,0,0,0,163.15,395L241.94,355V119.71l-78.44-43a13.06,13.06,0,0,0-4.24-1.44ZM663.74,142.4a96.33,96.33,0,1,1-96.34,96.33,96.53,96.53,0,0,1,96.34-96.33Zm0,26.06A70.27,70.27,0,1,0,734,238.73,70.08,70.08,0,0,0,663.74,168.46Z"
    />
  </g>
</svg>
