<svg
  id="Layer_1"
  data-name="Layer 1"
  xmlns="http://www.w3.org/2000/svg"
  viewBox="0 0 960 766.63"
>
  <defs>
    <style>
      .cls-1 {
        fill: #fc5f47;
      }
    </style>
  </defs>
  <path
    class="cls-1"
    d="M714.82,249.07C676.8,206.82,661.59,156,663,98.46V94a18.58,18.58,0,0,0-18.76-18.77H494.16A18.59,18.59,0,0,0,475.39,94v4.5c2.08,56-16.25,94.94-18.39,99.2a74.47,74.47,0,0,1,37.16,19.51,75.67,75.67,0,0,1,15.38,84.44H634.89a65.64,65.64,0,0,1,57.79,96.82,66.06,66.06,0,0,1,45.41,62.67,67.89,67.89,0,0,1-.51,8.24,66.17,66.17,0,0,1-44.9,54.44,65.64,65.64,0,0,1-57.79,96.82H619.12a64.46,64.46,0,0,1,6.38,28.14c0,36-29.64,66.93-65.67,66.93h122a19.57,19.57,0,0,0,10.88-3.38c4.88-3.38,120.21-87.19,121.71-241.8.75-91.57-54.16-170.76-99.57-221.42Z"
  />
  <path
    class="cls-1"
    d="M588,648.74a28.15,28.15,0,0,0-28.15-28.14H494.16a18.77,18.77,0,1,1,0-37.53H634.89a28.15,28.15,0,0,0,0-56.29H494.16a18.77,18.77,0,1,1,0-37.53H672.41a28.15,28.15,0,1,0,0-56.29H494.16a18.77,18.77,0,1,1,0-37.53H634.89a28.15,28.15,0,0,0,0-56.29H425.55L467.73,297a37.5,37.5,0,0,0-.07-53.07c-14.18-14.15-38.77-14.18-53,0L281.89,376.67H192.68a18.75,18.75,0,0,0-18.76,18.76V620.6a18.75,18.75,0,0,0,18.76,18.76h95c57.21,24.9,117.82,38.78,180.27,38.78h91.88C575.37,678.14,588,664.29,588,648.74Z"
  />
</svg>
