<svg
  id="Layer_1"
  data-name="Layer 1"
  xmlns="http://www.w3.org/2000/svg"
  viewBox="0 0 960 766.63"
>
  <defs>
    <style>
      .cls-1 {
        fill: #e85b27;
      }
    </style>
  </defs>
  <ellipse class="cls-1" cx="394.03" cy="439.29" rx="57.64" ry="57.65" />
  <path
    class="cls-1"
    d="M565.48,92.09A19.23,19.23,0,0,0,537,75.25L509.13,90.58,479.86,75.1a19.21,19.21,0,0,0-18,0L432.45,90.67,403,75.1a19.21,19.21,0,0,0-18,0L355.6,90.67,326.15,75.1a19.21,19.21,0,0,0-18,0L278.62,90.74,248,75a19.23,19.23,0,0,0-28,17.09v78.15H565.48Z"
  />
  <path
    class="cls-1"
    d="M489.24,616.76c-27.7-104.44,23.69-203.5,115.94-199-2.42-39.58,10.34-113.22-29-209.07H209.51a387.63,387.63,0,0,0-28.18,144.54V709.61a19.22,19.22,0,0,0,19.22,19.22H556c-32.27-28.91-55.62-70.05-66.76-112.07ZM394,535.37a96.09,96.09,0,1,1,96.06-96.08A96.19,96.19,0,0,1,394,535.37Z"
  />
  <path
    class="cls-1"
    d="M833.18,524.8C816.31,454.38,751.71,435.62,696.6,480a226.76,226.76,0,0,0-6.12-28.19c1.86.1-.14,0,30.16,0a57.71,57.71,0,0,0,57.64-57.65V365a19.23,19.23,0,0,0-19.22-19.22H729.91a57.7,57.7,0,0,0-57.64,57.65v3.24a226.59,226.59,0,0,0-25.21-37.63,19.21,19.21,0,1,0-29.61,24.49,189.25,189.25,0,0,1,39.66,83.6c-54.24-40.67-116.41-21.42-133,47.64-24.92,104.06,69.67,234.25,151.91,197.7a6.37,6.37,0,0,1,5.2,0c81.41,36.17,177.21-92.07,151.91-197.7Z"
  />
</svg>
