<svg
  id="Layer_1"
  data-name="Layer 1"
  xmlns="http://www.w3.org/2000/svg"
  viewBox="0 0 960 766.63"
>
  <defs>
    <style>
      .cls-1 {
        fill: #59c95e;
      }
    </style>
  </defs>
  <path
    class="cls-1"
    d="M601.2,673a69.37,69.37,0,0,1-9.37,34.91H738.48a52.42,52.42,0,0,0,52.36-52.36V632.23H601.2Z"
  />
  <path
    class="cls-1"
    d="M738.48,308.8h-192a52.41,52.41,0,0,0-52.29,49.71,118,118,0,0,1,44,34.05H790.84V361.15A52.42,52.42,0,0,0,738.48,308.8Z"
  />
  <path
    class="cls-1"
    d="M561.65,442.64a52.27,52.27,0,0,1,20.93,41.84v35.2a69.57,69.57,0,0,1,18.62,47.4v30.25H790.84V427.47H557.52A118.16,118.16,0,0,1,561.65,442.64Zm62.82,41.84a17.45,17.45,0,1,1,34.9,0v55.84a17.45,17.45,0,0,1-34.9,0Z"
  />
  <path
    class="cls-1"
    d="M531.39,532.18H230.06a34.94,34.94,0,0,0-34.9,34.9V673a35,35,0,0,0,34.9,34.91H531.39A35,35,0,0,0,566.29,673V567.08A34.94,34.94,0,0,0,531.39,532.18Z"
  />
  <path
    class="cls-1"
    d="M531.39,497.27a70,70,0,0,1,16.29,1.92V484.48A17.46,17.46,0,0,0,530.23,467H232.39a17.46,17.46,0,0,0-17.45,17.46v14.45a69.16,69.16,0,0,1,15.12-1.66Z"
  />
  <path
    class="cls-1"
    d="M446.46,383.26a85.55,85.55,0,0,1-54.66-19.79l-27.25-22.7a17.44,17.44,0,0,0-24.79,2.5l-32.37,40.45a82.82,82.82,0,0,0-66.64,48.4h281.1a82.71,82.71,0,0,0-75.39-48.86Z"
  />
  <path
    class="cls-1"
    d="M511.61,204.09H624.47v30.25h-57A17.45,17.45,0,0,0,550,251.79v22.1H733.83v-22.1a17.45,17.45,0,0,0-17.45-17.45h-57V204.09h47.7a17.46,17.46,0,0,0,17.45-17.45V140.1A17.46,17.46,0,0,0,708,122.67L512.54,112.2a17.45,17.45,0,0,0-18.38,17.43v57A17.46,17.46,0,0,0,511.61,204.09Z"
  />
</svg>
