<svg
  id="Layer_1"
  data-name="Layer 1"
  xmlns="http://www.w3.org/2000/svg"
  viewBox="0 0 960 766.63"
>
  <defs>
    <style>
      .cls-1 {
        fill: #bd6455;
      }
    </style>
  </defs>
  <path
    class="cls-1"
    d="M242.73,688.5H360.18c32,0,58.08-27.35,58.08-59.37a58.2,58.2,0,0,0-38.8-54.79c.06-1.1.08-2.19.08-3.29a77.52,77.52,0,0,0-77.44-77.44c-42.7,0-78.73,34.73-78.73,77.44,0,1.1,0,2.19.08,3.29a58.19,58.19,0,0,0-38.79,54.79C184.66,661.15,210.71,688.5,242.73,688.5Z"
  />
  <path
    class="cls-1"
    d="M805.37,574.34c0-1.1.07-2.19.07-3.29a77.44,77.44,0,1,0-154.87,0c0,1.1,0,2.19.07,3.29a58.2,58.2,0,0,0-38.79,54.79c0,32,26,59.37,58.08,59.37H786.08c32,0,59.37-27.35,59.37-59.37C845.45,603.87,827.94,582.32,805.37,574.34Z"
  />
  <path
    class="cls-1"
    d="M515.05,300a19.36,19.36,0,1,0,19.36,19.36A19.38,19.38,0,0,0,515.05,300Z"
  />
  <path class="cls-1" d="M457,454.9H573.13V571.05H457Z" />
  <path
    class="cls-1"
    d="M613.7,550.37a115.75,115.75,0,0,1,153-88.68V368.06l8.12,5.79a19.35,19.35,0,0,0,22.49-31.5l-271-193.59a19.36,19.36,0,0,0-22.49,0L231.49,342.35A19.35,19.35,0,1,0,254,373.85l8.11-5.79v93.63a123,123,0,0,1,40-6.79,116.31,116.31,0,0,1,114.3,95.47c.73.52,1.16,1.33,1.86,1.87V435.54a19.35,19.35,0,0,1,19.36-19.36H592.49a19.35,19.35,0,0,1,19.36,19.36v116.7C612.55,551.7,613,550.89,613.7,550.37ZM515.05,377.46a58.08,58.08,0,1,1,58.08-58.08A58.14,58.14,0,0,1,515.05,377.46Z"
  />
  <path
    class="cls-1"
    d="M826.09,27.7h-40c-31.77,0-59.77,15.6-77.43,39.32C691,43.3,663,27.7,631.21,27.7H592.49a19.35,19.35,0,0,0-19.36,19.36c0,53.37,43.43,98.09,96.8,98.09h19.36v38.72H669.93a19,19,0,0,0-15.72,8.67L766.72,272.9V203.23a19.35,19.35,0,0,0-19.36-19.36H728V145.15h19.36c53.37,0,98.09-44.72,98.09-98.09A19.35,19.35,0,0,0,826.09,27.7Z"
  />
  <path
    class="cls-1"
    d="M593,688.5a99.72,99.72,0,0,1-19.85-59.37,95,95,0,0,1,2.36-19.36H454.62A95.73,95.73,0,0,1,457,629.13a99.73,99.73,0,0,1-19.86,59.37Z"
  />
</svg>
