<svg
  id="Layer_1"
  data-name="Layer 1"
  xmlns="http://www.w3.org/2000/svg"
  viewBox="0 0 960 766.63"
>
  <defs>
    <style>
      .cls-1 {
        fill: #e85b27;
      }
    </style>
  </defs>
  <path
    class="cls-1"
    d="M495.54,461V407.05L437,377.78l-59.83,29.27V461L437,490.22Z"
  />
  <path
    class="cls-1"
    d="M299.16,524.1V578l58.53,29.26L417.51,578V524.1l-59.82-29.27Z"
  />
  <path
    class="cls-1"
    d="M515.05,494.83,456.53,524.1V578l58.52,29.26,24.08-12a75.18,75.18,0,0,1-4.57-24.68c0-21.47,9.39-40.19,23.51-54.22Z"
  />
  <path class="cls-1" d="M221.13,60.74H651.61v40.32H221.13Z" />
  <path
    class="cls-1"
    d="M770,648.59H612.59a39,39,0,0,0,0,78H770a39,39,0,0,0,0-78Z"
  />
  <path
    class="cls-1"
    d="M770,531.54H612.59a39,39,0,0,0,0,78H770a39,39,0,0,0,0-78Z"
  />
  <path
    class="cls-1"
    d="M225.37,230.32a66.4,66.4,0,0,0,110.5,0c10.32-15.51,35.25-15.51,45.57,0,12.35,18.52,34.3,29.57,56.55,29.57a66.27,66.27,0,0,0,55.25-29.57c10.32-15.51,35.24-15.51,45.57,0,17.13,25.68,47.36,33.82,73.78,27.44V140.08H209.07l-39.36,78.7,32.29-.65A27.47,27.47,0,0,1,225.37,230.32Z"
  />
  <path
    class="cls-1"
    d="M545.41,726.63a76.46,76.46,0,0,1,16.11-97.54c-.33-.29-.58-.67-.91-1L515.05,650.9l-78-39-79.33,39-97.55-48.77V500l78-39v-78L437,334.15l97.54,48.78v78l46.05,23c-4.09-9.46-7-19.52-7-30.47,0-28.76,15.8-53.65,39-67.18V296.68c-39,7-73.13-6.48-96.57-32.31a105.11,105.11,0,0,1-78,34.54c-30,0-59.52-12.67-79.33-34.52a104.66,104.66,0,0,1-148.5,6.92C179.81,317,143.09,390.34,143.09,473c0,92.09,47,186.6,108.56,253.61Z"
  />
  <path
    class="cls-1"
    d="M651.61,140.08V414.49a39,39,0,1,0,0,78h79.33a39,39,0,0,0,0-78V140.08Z"
  />
</svg>
