<svg
  id="Layer_1"
  data-name="Layer 1"
  xmlns="http://www.w3.org/2000/svg"
  viewBox="0 0 960 766.63"
>
  <defs>
    <style>
      .cls-1 {
        fill: #e85b27;
      }
    </style>
  </defs>
  <path
    class="cls-1"
    d="M512.4,327.07c-21.67,7.23-44.09,14.7-88.36,14.7s-66.68-7.47-88.36-14.7c-19.43-6.48-37.79-12.59-75.41-12.59H239.8V621.55a88.8,88.8,0,0,0,88.71,88.71H519.58A88.73,88.73,0,0,0,546.71,706a197.55,197.55,0,0,1-72.17-152.71c0-86.68,56-160.51,133.75-187.21V314.48H587.82C550.2,314.48,531.84,320.59,512.4,327.07ZM321.69,573.78a20.47,20.47,0,1,1,20.47-20.47A20.47,20.47,0,0,1,321.69,573.78Zm0-75.06a20.47,20.47,0,1,1,20.47-20.47A20.48,20.48,0,0,1,321.69,498.72Zm61.41,40.94a20.47,20.47,0,1,1,20.47-20.47A20.47,20.47,0,0,1,383.1,539.66Z"
  />
  <path
    class="cls-1"
    d="M695.83,398.11a61.53,61.53,0,0,1,58.49-42.69,20.47,20.47,0,0,0,0-40.94,102.51,102.51,0,0,0-100.5,83c-77.8,9.23-138.34,75.6-138.34,155.84,0,86.54,70.41,157,156.95,157s157-70.41,157-157C829.38,474.72,771.32,409.44,695.83,398.11Z"
  />
  <path
    class="cls-1"
    d="M587.82,273.53h20.47V171.17a20.48,20.48,0,0,0-20.47-20.47H541.13L511,284.45c18.63-5.83,40.27-10.92,76.79-10.92Z"
  />
  <path
    class="cls-1"
    d="M260.27,150.7a20.48,20.48,0,0,0-20.47,20.47V273.53h20.47c44.27,0,66.68,7.47,88.36,14.7,19.44,6.48,37.79,12.6,75.41,12.6,17.53,0,30.88-1.33,42.1-3.41l33-146.72Z"
  />
  <path
    class="cls-1"
    d="M656.06,11.5H546.87a20.47,20.47,0,0,0-20,16L499.17,150.7h42l22.12-98.26h92.81a20.47,20.47,0,1,0,0-40.94Z"
  />
  <path
    class="cls-1"
    d="M260.27,109.76H374.43A129.64,129.64,0,1,0,198.86,285.33V171.17A61.48,61.48,0,0,1,260.27,109.76Z"
  />
</svg>
