<svg
  id="Layer_1"
  data-name="Layer 1"
  xmlns="http://www.w3.org/2000/svg"
  viewBox="0 0 960 766.63"
>
  <defs>
    <style>
      .cls-1 {
        fill: #e85b27;
      }
    </style>
  </defs>
  <path
    class="cls-1"
    d="M497.88,569.44c23.59,0,42.79-24.41,42.79-54.42s-19.2-54.42-42.79-54.42S455.09,485,455.09,515,474.28,569.44,497.88,569.44Z"
  />
  <path
    class="cls-1"
    d="M672.64,403.42a236.44,236.44,0,0,0-87.65-112l-7.57-5.21V175h7.3a21.09,21.09,0,0,0,0-42.18H411A21.09,21.09,0,0,0,411,175h7.3v38.88A108.27,108.27,0,0,0,322,406.46a236.26,236.26,0,0,0-6.86,138.93l46.06,181.93a21.09,21.09,0,0,0,20.44,15.91H614.11a21.09,21.09,0,0,0,20.44-15.91l46.06-181.93a236.47,236.47,0,0,0-8-142ZM314.26,315.31A66.07,66.07,0,0,1,418.34,261.2v25.05l-7.58,5.21A236.19,236.19,0,0,0,340.1,367.7a66.06,66.06,0,0,1-25.84-52.39ZM476.75,421.45A40,40,0,0,0,465,394.7a21.09,21.09,0,1,1,29.82-29.82,81.85,81.85,0,0,1,24.11,56.55C555.63,432.1,582.85,470,582.85,515c0,53.26-38.12,96.6-85,96.6s-85-43.34-85-96.6c0-45,27.17-82.86,63.84-93.57Z"
  />
  <path
    class="cls-1"
    d="M558.82,90.63V44.49A21.09,21.09,0,0,0,537.73,23.4H458a21.09,21.09,0,0,0-21.09,21.09V90.63Z"
  />
</svg>
