<svg
  id="Layer_1"
  data-name="Layer 1"
  xmlns="http://www.w3.org/2000/svg"
  viewBox="0 0 960 766.63"
>
  <defs>
    <style>
      .cls-1 {
        fill: #004b90;
      }
    </style>
  </defs>
  <g id="Layer_2" data-name="Layer 2">
    <g id="Layer_copy_10" data-name="Layer copy 10">
      <g id="_95" data-name=" 95">
        <path
          class="cls-1"
          d="M503.64,69.78C323.79,69.78,178,215.58,178,395.43s145.8,325.65,325.65,325.65,325.65-145.8,325.65-325.65S683.49,69.78,503.64,69.78Zm-104.78,339A32.93,32.93,0,0,1,366,441.63h-26.6a32.93,32.93,0,0,1-32.89-32.89V382.13a32.94,32.94,0,0,1,32.89-32.9H366a32.94,32.94,0,0,1,32.9,32.9Zm151,0A32.92,32.92,0,0,1,517,441.63H490.33a32.93,32.93,0,0,1-32.89-32.89V382.13a32.94,32.94,0,0,1,32.89-32.9H517a32.93,32.93,0,0,1,32.89,32.9Zm151,0a32.92,32.92,0,0,1-32.89,32.89h-26.6a32.93,32.93,0,0,1-32.9-32.89V382.13a32.94,32.94,0,0,1,32.9-32.9h26.6a32.93,32.93,0,0,1,32.89,32.9Z"
        />
      </g>
    </g>
  </g>
</svg>
