<svg
  id="Layer_1"
  data-name="Layer 1"
  xmlns="http://www.w3.org/2000/svg"
  viewBox="0 0 960 766.63"
>
  <defs>
    <style>
      .cls-1 {
        fill: #e85b27;
      }
    </style>
  </defs>
  <path
    class="cls-1"
    d="M317.35,68.33a30.94,30.94,0,0,1,29.86-22.81h14.63a31,31,0,0,1,29.87,22.81L415,153.88H294Z"
  />
  <path
    class="cls-1"
    d="M246.17,184.84A46.44,46.44,0,0,0,239,277.17l-.13.54H470.17l-.13-.54a46.44,46.44,0,0,0-7.15-92.33Z"
  />
  <path
    class="cls-1"
    d="M477.46,308.67H231.6l-26.78,113.8q-1.17,5-2.29,10h80.32c19.1-19.27,44.2-31,71.68-31s52.57,11.69,71.67,31h80.32q-.69-3.12-1.4-6.23c-.3-1.27-.59-2.54-.89-3.81Z"
  />
  <path
    class="cls-1"
    d="M448.39,463.47a139.46,139.46,0,0,1,0,123.84H524.7a773.32,773.32,0,0,0-7.09-92.88q-2.13-15.53-4.89-31Z"
  />
  <path
    class="cls-1"
    d="M426.2,618.27h98.61v46.44A61.83,61.83,0,0,1,521.05,686c-.23.61-.46,1.23-.71,1.83a61.94,61.94,0,0,1-57.45,38.8H246.17a61.92,61.92,0,0,1-61.92-61.92V618.27h98.6c19.1,19.27,44.2,31,71.68,31S407.1,637.54,426.2,618.27Z"
  />
  <path
    class="cls-1"
    d="M246.17,525.39a137,137,0,0,0,14.5,61.92H184.35a774.45,774.45,0,0,1,12-123.84h64.33A137,137,0,0,0,246.17,525.39Z"
  />
  <path
    class="cls-1"
    d="M547.07,704A209.18,209.18,0,0,0,642,726.63h13.27c116,0,210.08-94.06,210.08-210.08a22.11,22.11,0,0,0-22.11-22.12H548.85a805.68,805.68,0,0,1,6.91,105.31v65A92.5,92.5,0,0,1,547.07,704Z"
  />
  <path
    class="cls-1"
    d="M544.15,463.47H833.86a54.21,54.21,0,0,0-51.14-46.38,54.21,54.21,0,0,0-48.93-77.46H705.35a54.19,54.19,0,0,0-49-77.4h-53a16.67,16.67,0,0,0-16.67,16.67v29.77a61.59,61.59,0,0,0,8.28,31h-31.5a54.09,54.09,0,0,0-42.21,20.21l13.07,55.54Q540,439.28,544.15,463.47Z"
  />
  <path
    class="cls-1"
    d="M354.53,618.27c39,0,77.4-37.57,77.4-92.88s-38.41-92.88-77.4-92.88-77.4,37.57-77.4,92.88S315.54,618.27,354.53,618.27Z"
  />
</svg>
