<svg
  id="Layer_1"
  data-name="Layer 1"
  xmlns="http://www.w3.org/2000/svg"
  viewBox="0 0 960 766.63"
>
  <defs>
    <style>
      .cls-1 {
        fill: #e85b27;
      }
    </style>
  </defs>
  <path
    class="cls-1"
    d="M239,273.37h214a36.21,36.21,0,0,0,36.16-36.16V195a36.21,36.21,0,0,0-36.16-36.17H239A36.21,36.21,0,0,0,202.8,195v42.19A36.21,36.21,0,0,0,239,273.37Z"
  />
  <path
    class="cls-1"
    d="M295.52,134.75H395.86a12.05,12.05,0,0,0,11.78-14.59L393,51.81a36.37,36.37,0,0,0-35.36-28.56H333a36.27,36.27,0,0,0-35.42,28.93l-13.91,68.1A12.05,12.05,0,0,0,295.52,134.75Z"
  />
  <path
    class="cls-1"
    d="M863.43,619.56,791.89,306a12,12,0,0,0-13.51-9.23c-7,1.07-225,1.05-232,0A12,12,0,0,0,532.82,306L517.13,374.8a12.12,12.12,0,0,0,0,5.36l53.39,234a98.82,98.82,0,0,1-25.21,90.74L532,718.8a12.09,12.09,0,0,0,3.82,19.39A75.12,75.12,0,0,0,566.89,745H757.83a75.37,75.37,0,0,0,54-23l32.52-33.79a74.72,74.72,0,0,0,19.07-68.65ZM662.36,586.77a90.41,90.41,0,1,1,90.4-90.4A90.51,90.51,0,0,1,662.36,586.77Z"
  />
  <path
    class="cls-1"
    d="M805.5,195v42.19a36.21,36.21,0,0,1-36.16,36.16h-214a36.21,36.21,0,0,1-36.16-36.16V195a36.21,36.21,0,0,1,36.16-36.17h214A36.21,36.21,0,0,1,805.5,195Z"
  />
  <path
    class="cls-1"
    d="M712.28,134.75H611.94a12.05,12.05,0,0,1-11.81-14.47L614,52.18a36.27,36.27,0,0,1,35.42-28.93H674A36.37,36.37,0,0,1,709.4,51.81l14.66,68.35a12.06,12.06,0,0,1-11.78,14.59Z"
  />
  <circle class="cls-1" cx="662.36" cy="496.37" r="66.3" />
  <path
    class="cls-1"
    d="M380.59,422.54H311.28a24.13,24.13,0,0,0-24.1,24.1V549.1a24.13,24.13,0,0,0,24.1,24.11h69.31A24.13,24.13,0,0,0,404.7,549.1V446.64A24.13,24.13,0,0,0,380.59,422.54Z"
  />
  <path
    class="cls-1"
    d="M547,619.56,475.48,306A12,12,0,0,0,462,296.8c-7,1.06-225,1.06-232,0A12,12,0,0,0,216.4,306L144.86,619.56a74.74,74.74,0,0,0,19.08,68.65L196.45,722a75.38,75.38,0,0,0,54,23H441.41a75.36,75.36,0,0,0,54-23l32.52-33.79A74.72,74.72,0,0,0,547,619.56ZM428.81,549.1a48.27,48.27,0,0,1-48.22,48.22H311.28a48.27,48.27,0,0,1-48.21-48.22V446.64a48.27,48.27,0,0,1,48.21-48.21h69.31a48.27,48.27,0,0,1,48.22,48.21Z"
  />
</svg>
