<svg
  id="Layer_1"
  data-name="Layer 1"
  xmlns="http://www.w3.org/2000/svg"
  viewBox="0 0 960 766.63"
>
  <defs>
    <style>
      .cls-1 {
        fill: #e85b27;
      }
    </style>
  </defs>
  <path
    class="cls-1"
    d="M407.17,126c-102.36,7.26-190.61,66.38-238.57,151.18L407.17,411.12Z"
  />
  <path
    class="cls-1"
    d="M496.92,384.83a240.39,240.39,0,0,0,193-153h26.28c127.09-4.84,127-187,0-191.8H513.73V82.62H716.19c70.6,2.69,70.55,103.9,0,106.56H701.72a240.27,240.27,0,0,0,3.82-42.63V125.24H449.8v267a90.63,90.63,0,0,1,13.59-2.93ZM535,210.49h42.63v42.62H535Z"
  />
  <path
    class="cls-1"
    d="M390.2,450.48,150.29,315.79a298.13,298.13,0,0,0,1.79,220.11l236.24-78.75Q389.13,453.76,390.2,450.48Z"
  />
  <path
    class="cls-1"
    d="M624.94,591.28,478.83,568.81l-105.71,148A298.94,298.94,0,0,0,428.49,722H623.87c8.79,25.07,32.8,42.62,61.77,42.62H790.78V702.08c0-17.79-10.52-32.87-25.18-44.05,14.66-11.17,25.18-26.25,25.18-44V551.47H685.64c-27.87,0-51.16,16.26-60.7,39.81Z"
  />
  <path
    class="cls-1"
    d="M389.07,501.83l-217.9,72.64A300,300,0,0,0,329.2,705L434.53,557.49A88.56,88.56,0,0,1,389.07,501.83Z"
  />
</svg>
