<svg
  id="Layer_1"
  data-name="Layer 1"
  xmlns="http://www.w3.org/2000/svg"
  viewBox="0 0 960 766.63"
>
  <defs>
    <style>
      .cls-1 {
        fill: #e85b27;
      }
    </style>
  </defs>
  <path
    class="cls-1"
    d="M294.76,386.45a81.52,81.52,0,0,1-6.49-61.8H211a81.6,81.6,0,0,1-8.85,66.15l-1.56,2.47a84.67,84.67,0,0,0-4.76,80.46L207,497.68h36.83a397.23,397.23,0,0,1-7.42-73.93,37.08,37.08,0,0,1,37.08-37.3Z"
  />
  <path
    class="cls-1"
    d="M571,281.39a18.54,18.54,0,0,0-18.54-18.54H441.2a18.54,18.54,0,1,0,0,37.08H552.43A18.54,18.54,0,0,0,571,281.39Z"
  />
  <path
    class="cls-1"
    d="M274.42,104.64a37.08,37.08,0,1,0-49.61,0A142.53,142.53,0,0,1,274.42,104.64Z"
  />
  <path
    class="cls-1"
    d="M542,386.45a81.61,81.61,0,0,1-6.49-61.8h-77.3a81.52,81.52,0,0,1-6.5,61.8Z"
  />
  <path
    class="cls-1"
    d="M522.65,129.79a116.32,116.32,0,0,0-51.58,0c-35.82,8.05-60.78,32.26-60.78,58.9a58.64,58.64,0,0,0,35.22,49.44H548.09a58.6,58.6,0,0,0,35.24-49.44C583.33,162.05,558.38,137.84,522.65,129.79Z"
  />
  <path
    class="cls-1"
    d="M768.57,386.45l68.79-140a53.71,53.71,0,0,0-21.28-70.07c-.27-.16-.54-.34-.79-.51a53.7,53.7,0,0,0-70.64,17L614.9,386.45Z"
  />
  <path
    class="cls-1"
    d="M459.74,77.45A36.74,36.74,0,0,0,472,104.64a142.53,142.53,0,0,1,49.61,0,37,37,0,1,0-61.88-27.19Z"
  />
  <path
    class="cls-1"
    d="M198.31,238.13H300.9a58.64,58.64,0,0,0,35.24-49.44c0-26.64-25-50.85-60.69-58.9a116.32,116.32,0,0,0-51.58,0c-35.82,8.05-60.77,32.26-60.77,58.9A58.63,58.63,0,0,0,198.31,238.13Z"
  />
  <path
    class="cls-1"
    d="M191.6,526a12,12,0,0,0-3.78,8.8,12.36,12.36,0,0,0,12.36,12.36h57.93c-3.2-8.21-5.94-16.47-8.27-24.72H200.18A12,12,0,0,0,191.6,526Z"
  />
  <path
    class="cls-1"
    d="M839.18,414.87a12.42,12.42,0,0,0-8.81-3.71H273.58a12.38,12.38,0,0,0-12.36,12.42,314.58,314.58,0,0,0,26.84,130.49,10.18,10.18,0,0,1,.49,1.06,168.4,168.4,0,0,0,31.62,45,314.68,314.68,0,0,1,52,67.28v.07A227.25,227.25,0,0,1,390.52,708a36.37,36.37,0,0,0,35,24.53h253A36.35,36.35,0,0,0,713.43,708a278,278,0,0,1,70.45-107.79c50.62-50.61,58.65-132.37,59-176.6A12.21,12.21,0,0,0,839.18,414.87ZM323.77,460.6H299.06a12.36,12.36,0,1,1,0-24.72h24.71a12.36,12.36,0,1,1,0,24.72Zm482,0H373.22a12.36,12.36,0,1,1,0-24.72H805.81a12.36,12.36,0,1,1,0,24.72Z"
  />
  <path
    class="cls-1"
    d="M348.49,675.74a293,293,0,0,0-42.39-54.46H175.46A24.72,24.72,0,0,0,150.74,646v86.52H348.49Z"
  />
  <path
    class="cls-1"
    d="M175.46,596.56h109.3a201.81,201.81,0,0,1-15.37-24.72H175.46a11.85,11.85,0,0,0-8.58,3.56,12.06,12.06,0,0,0-3.78,8.8A12.36,12.36,0,0,0,175.46,596.56Z"
  />
  <path
    class="cls-1"
    d="M305.23,299.93a18.54,18.54,0,1,0,0-37.08H194a18.54,18.54,0,0,0,0,37.08Z"
  />
</svg>
