<svg
  id="Layer_1"
  data-name="Layer 1"
  xmlns="http://www.w3.org/2000/svg"
  viewBox="0 0 960 766.63"
>
  <defs>
    <style>
      .cls-1 {
        fill: #e85b27;
      }
    </style>
  </defs>
  <path
    class="cls-1"
    d="M846.86,649.67l-31.34-117a20.38,20.38,0,0,0-13-13.9L741.11,498c-45.44-78.56-28.19-163.35-13.25-207.54C751.74,219.8,732.1,143.5,679,100.56A182.08,182.08,0,0,0,564.79,60.17c-93.3,0-169.53,70.93-179.71,161.57H302.24a20.31,20.31,0,0,0-14.3,5.9l-80.79,80.78a20.34,20.34,0,0,0-5.9,14.3V686.27a20.21,20.21,0,0,0,20.2,20.19H585a20.21,20.21,0,0,0,20.2-20.19V322.72a20.34,20.34,0,0,0-5.9-14.3L518.5,227.64a20.31,20.31,0,0,0-14.3-5.9H425.48c9.89-68.35,68.3-121.18,139.31-121.18a141.64,141.64,0,0,1,88.83,31.38c40,32.36,54.45,90.85,36,145.54-16.76,49.57-35.55,143.76,13.17,234l-39,44.39a20.31,20.31,0,0,0-4.32,18.59l31.34,117a20.22,20.22,0,0,0,19.51,15,21.68,21.68,0,0,0,5.25-.68l117-31.35A20.22,20.22,0,0,0,846.86,649.67ZM524.4,504.49v20.2a80.76,80.76,0,0,1-80.79,80.79h-6.74l6.74,20.2h-.2a149.21,149.21,0,0,1-141.54-102L282,464.1h.2a149.14,149.14,0,0,1,132.37,80.42c14.06-23.83,39.71-40,69.4-40ZM443.61,322.72a20.2,20.2,0,0,1-20.19,20.2H383a20.2,20.2,0,0,1,0-40.39h40.4A20.19,20.19,0,0,1,443.61,322.72Z"
  />
</svg>
