<svg
  id="Layer_1"
  data-name="Layer 1"
  xmlns="http://www.w3.org/2000/svg"
  viewBox="0 0 960 766.63"
>
  <defs>
    <style>
      .cls-1 {
        fill: #e85b27;
      }
    </style>
  </defs>
  <path
    class="cls-1"
    d="M788.38,286.1a286.73,286.73,0,0,0-98.15-95.72,206.74,206.74,0,0,1-52.52,39.37,204.59,204.59,0,0,1,9.19,67.6l-1.77,32.21-32.21,1.77c-.41,0-2.71.14-6.33.14a206.86,206.86,0,0,1-61.29-9.3A204.42,204.42,0,0,1,504,376.43L480,398l-24-21.55a204.45,204.45,0,0,1-41.26-54.25,206.86,206.86,0,0,1-61.29,9.3c-3.63,0-5.92-.12-6.35-.14l-32.18-1.77-1.78-32.21a204.61,204.61,0,0,1,9.19-67.61,206.45,206.45,0,0,1-52.52-39.37A285.49,285.49,0,0,0,128.7,436.79c0,157.55,128.17,285.72,285.72,285.72H545.59c157.54,0,285.71-128.17,285.71-285.72A285,285,0,0,0,788.38,286.1Z"
  />
  <path
    class="cls-1"
    d="M376.59,207.26l-9.39,20.27c-11.55,24.95-13,52-13.06,62.77,11.12-.06,37.94-1.52,62.75-13l20.28-9.42,7.71,21c9.47,25.78,27.57,45.93,35.12,53.59,7.55-7.65,25.64-27.78,35.12-53.59l7.71-21,20.28,9.42c24.8,11.51,51.63,13,62.75,13-.07-10.75-1.51-37.82-13.06-62.77l-9.39-20.27,21-7.7c25.82-9.48,46-27.58,53.61-35.12-10.61-10.46-45.16-41.15-85.41-41.15-29.5,0-55.82,16.36-72,29.26V102.24a41.21,41.21,0,0,1,41.16-41.17V19.9a82.43,82.43,0,0,0-82.33,82.34v50.31c-16.18-12.91-42.51-29.26-72-29.26-40.26,0-74.81,30.69-85.41,41.15,7.65,7.55,27.79,25.64,53.6,35.12Z"
  />
</svg>
