<svg
  id="Layer_1"
  data-name="Layer 1"
  xmlns="http://www.w3.org/2000/svg"
  viewBox="0 0 960 766.63"
>
  <defs>
    <style>
      .cls-1 {
        fill: #e85b27;
      }
    </style>
  </defs>
  <path
    class="cls-1"
    d="M571.84,261.39a108.2,108.2,0,0,0-87.12-106c.07-1.75.11-3.51.11-5.27a120.14,120.14,0,0,0-240.14-5.78c-.17,3.69-.18,7.38,0,11A108,108,0,0,0,191.6,340.12,108,108,0,0,0,260,518.56a65.42,65.42,0,0,0,39.38,53l7.05,99.5a58.41,58.41,0,0,0,116.53,0L430,571.55a65.41,65.41,0,0,0,39.38-53,108,108,0,0,0,68.4-178.44,107.73,107.73,0,0,0,34.05-78.73ZM385.6,436.09v34.15a20.91,20.91,0,0,1-41.82,0V436.09L298.67,391a20.91,20.91,0,0,1,29.58-29.57L343.78,377V311.36l-45.11-45.11a20.91,20.91,0,0,1,29.58-29.57l15.53,15.53v-79.1a20.91,20.91,0,1,1,41.82,0v79.1l15.54-15.54a20.91,20.91,0,0,1,29.57,29.58l-45.11,45.1V377l15.54-15.54A20.91,20.91,0,0,1,430.71,391Z"
  />
  <path
    class="cls-1"
    d="M841.8,108a69.25,69.25,0,0,0-46.69-12.12A69.19,69.19,0,0,0,656.94,95,69.13,69.13,0,0,0,594,203.54l41.84,59.75c1.87-2.28,3.81-4.51,5.88-6.66a116.18,116.18,0,0,1,84.63-35.83,117.43,117.43,0,0,1,87.27,38.92c1.2,1.33,2.36,2.7,3.49,4.08l41.64-59.47a69.27,69.27,0,0,0-17-96.36Z"
  />
  <path
    class="cls-1"
    d="M726.4,262.62a74.66,74.66,0,0,0-73.58,58.94h46.8a20.91,20.91,0,0,1,0,41.82H652.14c1.3,28.55,2.9,55.29,5.1,81,.19,0,.37,0,.56,0h52.73a20.91,20.91,0,1,1,0,41.82h-49C670.24,559.81,685.59,628.22,715,712l2.33,6.52a9.61,9.61,0,0,0,9.39,6.63h0a9.59,9.59,0,0,0,9.39-6.59l3.12-8.57c45.34-130.7,56.46-223.85,62-360.16l.09-2.29c0-.46,0-.92.1-1.38a75.46,75.46,0,0,0-75-83.56Z"
  />
</svg>
