<svg
  id="Layer_1"
  data-name="Layer 1"
  xmlns="http://www.w3.org/2000/svg"
  viewBox="0 0 960 766.63"
>
  <defs>
    <style>
      .cls-1 {
        fill: #e85b27;
      }
    </style>
  </defs>
  <path
    class="cls-1"
    d="M798.32,175.91A82.4,82.4,0,0,0,692.8,52.8a82.4,82.4,0,0,0-83.15,0,82.42,82.42,0,0,0-83.16,0,82.37,82.37,0,0,0-122,53.16,122,122,0,0,1,60.36,5.79A122.44,122.44,0,0,1,617.33,278.89a122.43,122.43,0,0,1,0,104,122.41,122.41,0,0,1,0,103.94,122.41,122.41,0,0,1,0,103.94,123.07,123.07,0,0,1,9.1,27.56,82.38,82.38,0,0,0,66.37-7.44A82.4,82.4,0,0,0,798.32,487.73a82.42,82.42,0,0,0,0-103.94,82.42,82.42,0,0,0,0-103.94,82.42,82.42,0,0,0,0-103.94ZM682.41,485.35a20,20,0,1,1,20-20A20,20,0,0,1,682.41,485.35Zm0-133.5a20,20,0,1,1,20-20A20,20,0,0,1,682.41,351.85Zm0-133.51a20,20,0,1,1,20-20A20,20,0,0,1,682.41,218.34Z"
  />
  <path
    class="cls-1"
    d="M506.47,144.53a82.29,82.29,0,0,0-41.58,11.26,82.4,82.4,0,0,0-83.15,0,82.42,82.42,0,0,0-83.16,0A82.4,82.4,0,0,0,193.07,278.9a82.42,82.42,0,0,0,0,103.94,82.42,82.42,0,0,0,0,103.94,82.42,82.42,0,0,0,0,103.94,82.39,82.39,0,0,0,105.52,123.1,82.38,82.38,0,0,0,83.15,0,82.38,82.38,0,0,0,83.15,0,82.4,82.4,0,0,0,105.52-123.1,82.42,82.42,0,0,0,0-103.94,82.42,82.42,0,0,0,0-103.94,82.42,82.42,0,0,0,0-103.94,82.41,82.41,0,0,0-63.94-134.37ZM309,588.34a20,20,0,1,1,20-20A20,20,0,0,1,309,588.34Zm0-133.51a20,20,0,1,1,20-20A20,20,0,0,1,309,454.83Zm0-133.5a20,20,0,1,1,20-20A20,20,0,0,1,309,321.33Zm145.52,267a20,20,0,1,1,20-20A20,20,0,0,1,454.5,588.34Zm0-133.51a20,20,0,1,1,20-20A20,20,0,0,1,454.5,454.83Zm0-133.5a20,20,0,1,1,20-20A20,20,0,0,1,454.5,321.33Z"
  />
</svg>
