<svg id="Layer_1" data-name="Layer 1" xmlns="http://www.w3.org/2000/svg" viewBox="0 0 150 150"><defs><style>.cls-1{fill:#ff9f2f;fill-rule:evenodd;}</style></defs><path class="cls-1" d="M120.41,90.48l-9.82-32.76c-7.82-26.06-57-26-64.77,0L42,70.59A14.1,14.1,0,0,1,67,79h1.4a7.73,7.73,0,0,1,7.42,5.6,70.15,70.15,0,0,1,3,19.81,13.36,13.36,0,0,1-3.59,9.39,13.83,13.83,0,0,1-4.36,3.1H90.49a13,13,0,0,0,12.62-9.77l1.16-7.61L106.4,102a4.32,4.32,0,0,0,5.18,1l4.4-2.19A8.67,8.67,0,0,0,120.41,90.48ZM86.14,43.1a9.43,9.43,0,0,1-15.86,0l-4.82-7.5,4.17-2.09.46-.2a4.44,4.44,0,0,1,1.48-.26H84.85l.5,0a4.27,4.27,0,0,1,1.44.42L91,35.59Z"/><path class="cls-1" d="M76.6,104.45a67.8,67.8,0,0,0-3-19.19,5.43,5.43,0,0,0-5.24-4H64.75V79.48c0-.15,0-.3,0-.44a11.84,11.84,0,0,0-23.67,0V81.3H38.81v-.19l-.05.19H37.42a5.43,5.43,0,0,0-5.24,4,67.86,67.86,0,0,0-3,19.19,11.2,11.2,0,0,0,3,7.84,13.12,13.12,0,0,0,7.7,3.78,85.42,85.42,0,0,0,13,.87,96,96,0,0,0,9.64-.44h0c1.22-.13,2.34-.27,3.38-.43a13.06,13.06,0,0,0,7.69-3.78A11.16,11.16,0,0,0,76.6,104.45ZM48.79,81.3V79.48c0-.15,0-.3,0-.44A4.12,4.12,0,0,1,57,79a3.15,3.15,0,0,1,0,.44V81.3Z"/></svg>