<svg id="Layer_1" data-name="Layer 1" xmlns="http://www.w3.org/2000/svg" viewBox="0 0 150 150"><defs><style>.cls-1,.cls-2{fill:#e85d28;}.cls-1{fill-rule:evenodd;}.cls-3{fill:none;}</style></defs><path class="cls-1" d="M117.5,77.28V111a7.91,7.91,0,0,1-7.92,7.91H98a5.88,5.88,0,0,0,.83-.68,5.54,5.54,0,0,0,0-7.92,5.41,5.41,0,0,0-1.16-.9,6,6,0,0,0,1.15-.88,5.62,5.62,0,0,0-1.22-8.86,4.89,4.89,0,0,0,1-.92,5,5,0,0,0,1-4.34A25.34,25.34,0,0,0,95,84.08a28.49,28.49,0,0,0-8-7,34.45,34.45,0,0,0-6.91-3.1,6,6,0,0,0-.5-.63,4.31,4.31,0,0,0-.37-.37,7.68,7.68,0,0,1,1.67-1.84l5.75-4.6a4,4,0,0,0,1.47-2.77l1.7-20.35a4,4,0,0,1,3.94-3.63h7.92a4,4,0,0,1,3.94,3.63l1.7,20.35a4,4,0,0,0,1.47,2.77l5.75,4.6A7.89,7.89,0,0,1,117.5,77.28Z"/><rect class="cls-2" x="90.46" y="31.09" width="14.56" height="5.78" rx="2.89"/><path class="cls-2" d="M98.48,104.57a3.65,3.65,0,0,1-3.62,3.6H37.42a3.47,3.47,0,0,1-2.54-1.08,3.33,3.33,0,0,1-.25-.28L76,100.94l2-.28v.28H94.86A3.45,3.45,0,0,1,97.4,102,3.49,3.49,0,0,1,98.48,104.57Z"/><path class="cls-3" d="M34.65,102.24h0l0,4.55s0,0,0,0"/><path class="cls-2" d="M98.48,104.57a3.65,3.65,0,0,1-3.62,3.6H37.42a3.47,3.47,0,0,1-2.54-1.08,3.33,3.33,0,0,1-.25-.28h0a3.5,3.5,0,0,1,0-4.55h0l.23-.24a3.48,3.48,0,0,1,2.54-1.06H94.86A3.45,3.45,0,0,1,97.4,102,3.49,3.49,0,0,1,98.48,104.57Z"/><path class="cls-2" d="M98.48,114.27a3.43,3.43,0,0,1-1.08,2.53,3.48,3.48,0,0,1-2.54,1.07h-3.8l-11.21-1.68-37-5.56h52a3.42,3.42,0,0,1,2.54,1.09A3.49,3.49,0,0,1,98.48,114.27Z"/><path class="cls-2" d="M98.48,114.27a3.43,3.43,0,0,1-1.08,2.53,3.48,3.48,0,0,1-2.54,1.07H37.42a3.44,3.44,0,0,1-2.54-1.09,3.49,3.49,0,0,1-1.08-2.55,3.43,3.43,0,0,1,1.08-2.53,3.49,3.49,0,0,1,2.54-1.07H94.86a3.42,3.42,0,0,1,2.54,1.09A3.49,3.49,0,0,1,98.48,114.27Z"/><path class="cls-1" d="M97.63,94.83a23.1,23.1,0,0,0-4.26-9.52A26,26,0,0,0,86,78.77a31.44,31.44,0,0,0-7.24-3.15,4,4,0,0,0-.44-.75l-.18-.2A17.79,17.79,0,0,0,65.5,69.05c-.16-.41-.34-.81-.53-1.21a21.32,21.32,0,0,0-9.81-10.21A14.65,14.65,0,0,0,33.83,67.68a21.37,21.37,0,0,0,1.63,14.08c.19.39.38.78.59,1.17a17.71,17.71,0,0,0-3.53,11.56,3.51,3.51,0,0,0,3.06,3.32,3,3,0,0,0,2.16.85h56.8a3.16,3.16,0,0,0,3.09-3.83Zm-40-20.17a6.86,6.86,0,0,0-11.05,3.92l-.32.19A25.55,25.55,0,0,0,43.11,81a16.33,16.33,0,0,1-1.29-2.24,14.34,14.34,0,0,1-1.15-9.41A8.18,8.18,0,0,1,45,63.63a8.18,8.18,0,0,1,7.13.33,14.28,14.28,0,0,1,6.52,6.89,15.61,15.61,0,0,1,1,2.75,3.25,3.25,0,0,0,.26.7C59.14,74.4,58.41,74.52,57.67,74.66Z"/><path class="cls-1" d="M97.63,94.83a23.1,23.1,0,0,0-4.26-9.52A26,26,0,0,0,86,78.77a31.44,31.44,0,0,0-7.24-3.15,4,4,0,0,0-.44-.75l-.18-.2A17.79,17.79,0,0,0,65.5,69.05c-.16-.41-.34-.81-.53-1.21a21.32,21.32,0,0,0-9.81-10.21A14.65,14.65,0,0,0,33.83,67.68a21.37,21.37,0,0,0,1.63,14.08c.19.39.38.78.59,1.17a17.71,17.71,0,0,0-3.53,11.56,3.51,3.51,0,0,0,3.06,3.32,3,3,0,0,0,2.16.85h56.8a3.16,3.16,0,0,0,3.09-3.83Zm-40-20.17a6.86,6.86,0,0,0-11.05,3.92l-.32.19A25.55,25.55,0,0,0,43.11,81a16.33,16.33,0,0,1-1.29-2.24,14.34,14.34,0,0,1-1.15-9.41A8.18,8.18,0,0,1,45,63.63a8.18,8.18,0,0,1,7.13.33,14.28,14.28,0,0,1,6.52,6.89,15.61,15.61,0,0,1,1,2.75,3.25,3.25,0,0,0,.26.7C59.14,74.4,58.41,74.52,57.67,74.66Z"/></svg>