<svg id="Layer_1" data-name="Layer 1" xmlns="http://www.w3.org/2000/svg" viewBox="0 0 150 150"><defs><style>.cls-1,.cls-2{fill:#58cc60;}.cls-1{fill-rule:evenodd;}</style></defs><path class="cls-1" d="M46.31,67V49.11A3.19,3.19,0,0,0,43.9,46l-7.44-1.86a3.19,3.19,0,0,0-4,3.09V68.84a3.19,3.19,0,0,0,4,3.09l7.44-1.86A3.18,3.18,0,0,0,46.31,67Z"/><path class="cls-1" d="M87.15,35.65l-35.79,11A3.75,3.75,0,0,0,48.7,50.2V66.12a4.15,4.15,0,0,0,3,4l24.19,7a7.57,7.57,0,0,1,5.49,7.28v29a2.12,2.12,0,0,0,2.12,2.12H99.89a2.12,2.12,0,0,0,2.11-1.86l4.53-35.66A23.44,23.44,0,0,0,87.15,35.65Zm8.52,28.14a5.94,5.94,0,0,1-7.29-7.29,6.08,6.08,0,0,1,4.2-4.2,5.94,5.94,0,0,1,7.29,7.29A6.08,6.08,0,0,1,95.67,63.79Z"/><path class="cls-2" d="M47.77,98.54v14.07a2.81,2.81,0,0,0,2.81,2.81H75.9a2.81,2.81,0,0,0,2.82-2.81V98.54a7.05,7.05,0,0,0-5.63-6.89V90.1a5.63,5.63,0,0,0-5.63-5.63H64.65V80.25h2.81a1.41,1.41,0,1,0,0-2.81H56.21A4.22,4.22,0,0,0,52,81.66a1.41,1.41,0,1,0,2.81,0,1.41,1.41,0,0,1,1.41-1.41h5.62v4.22H59a5.63,5.63,0,0,0-5.63,5.63v1.55A7,7,0,0,0,47.77,98.54Zm22.5-8.44v1.41H56.21V90.1A2.81,2.81,0,0,1,59,87.29h8.44A2.81,2.81,0,0,1,70.27,90.1Z"/></svg>