<svg id="Layer_1" data-name="Layer 1" xmlns="http://www.w3.org/2000/svg" viewBox="0 0 150 150"><defs><style>.cls-1{fill:#fe5d45;}</style></defs><g id="_996_Ceramic_culture_global_india_indian_pottery" data-name="996, Ceramic, culture, global, india, indian, pottery"><rect class="cls-1" x="47.79" y="51.03" width="23.52" height="4.38"/><path class="cls-1" d="M74.34,75.19c0-4.13-2.28-15.52-2.78-18.28H47.66c-.5,2.38-2.27,11.52-2.65,16.4a.68.68,0,0,1,.63-.37H67.76a.81.81,0,0,1,.76.75.82.82,0,0,1-.76.75H45.64a.57.57,0,0,1-.63-.5v1.25c0,1.75.12,3.38.25,5h0c1.52-1.13,5.18-2.51,8,0,2.53,2.38,6,0,6.07,0h0c1.52-1.13,5.19-2.51,8,0,2.53,2.38,5.94,0,6.07,0a.75.75,0,0,1,.88,0C74.21,78.57,74.34,76.82,74.34,75.19Z"/><polygon class="cls-1" points="71.68 49.65 75.35 42.39 43.87 42.39 47.53 49.65 71.68 49.65"/><path class="cls-1" d="M51.58,87.58H72.19a.66.66,0,0,1,.5.25A46.46,46.46,0,0,0,74,81.45a7.45,7.45,0,0,1-4.17,1.25,5.35,5.35,0,0,1-3.67-1.38c-2.53-2.37-5.94,0-6.07,0h0a7.78,7.78,0,0,1-4.17,1.38,5.36,5.36,0,0,1-3.67-1.38c-2.53-2.37-5.94,0-6.07,0a.77.77,0,0,1-.75,0c.88,6.64,3.16,12.77,6.06,16.4H67.89A27.09,27.09,0,0,0,72.32,89H51.58a.82.82,0,0,1-.76-.75C50.82,87.83,51.08,87.58,51.58,87.58Z"/><path class="cls-1" d="M118.25,103.61H69.41l-2.15-4.38H52l-2.15,4.38h-15a.81.81,0,0,0-.76.75.82.82,0,0,0,.76.75h83.48a.82.82,0,0,0,.76-.75A.73.73,0,0,0,118.25,103.61Z"/></g><g id="_984_pot_sand_water_pongal_festival" data-name="984, pot, sand, water, pongal, festival"><path class="cls-1" d="M89.05,93a1.25,1.25,0,0,1-.34-.25.38.38,0,0,1,0-.43.61.61,0,0,0-.09-.76.65.65,0,0,0-.77-.08.4.4,0,0,1-.42,0c-.18-.09-.26-.17-.26-.34a.63.63,0,0,0-1.2,0,1.08,1.08,0,0,1-.26.34.4.4,0,0,1-.42,0c-.09-.09-.18-.09-.35-.09a.65.65,0,0,0-.42.17.61.61,0,0,0-.09.76.38.38,0,0,1,0,.43c-.09.17-.17.25-.34.25a.63.63,0,0,0,0,1.19,1.25,1.25,0,0,1,.34.25.38.38,0,0,1,0,.43.61.61,0,0,0,.09.76.6.6,0,0,0,.42.17.72.72,0,0,0,.35-.08c.08,0,.17-.09.25-.09h.17c.18.09.26.17.26.34a.64.64,0,0,0,1.2,0,1.08,1.08,0,0,1,.26-.34.4.4,0,0,1,.42,0c.09.09.18.09.35.09h0a.65.65,0,0,0,.42-.17.63.63,0,0,0,.09-.77.36.36,0,0,1,0-.42c.09-.17.17-.26.34-.26a.62.62,0,0,0,.43-.59C89.57,93.35,89.4,93.1,89.05,93Z"/><path class="cls-1" d="M88.88,84a2.88,2.88,0,0,0,3.85,0,3.81,3.81,0,0,1,5.14,0,2.88,2.88,0,0,0,3.85,0,3.81,3.81,0,0,1,5.14,0,2.84,2.84,0,0,0,3.51.25,17.28,17.28,0,0,1-3.6-6.19,4,4,0,0,1-2.14.6,4.9,4.9,0,0,1-2.74-.93,3.11,3.11,0,0,0-4.11,0,4.25,4.25,0,0,1-2.65,1,4.8,4.8,0,0,1-2.74-.93,3.12,3.12,0,0,0-4.11,0h0a17.33,17.33,0,0,1-2.65,5.34A3.65,3.65,0,0,1,88.88,84Z"/><path class="cls-1" d="M89.57,68.94h15.92a3,3,0,1,0,0-5.93H89.57a3,3,0,1,0,0,5.93Z"/><path class="cls-1" d="M105.49,70H89.14v2.88a15.78,15.78,0,0,1-.34,3.47,4.28,4.28,0,0,1,4.36.6,3.13,3.13,0,0,0,4.11,0,4.16,4.16,0,0,1,5.39,0,3.29,3.29,0,0,0,3.94.17,17.58,17.58,0,0,1-.51-4.24V70ZM93.42,73.77a.64.64,0,0,1-.34.17.44.44,0,0,1-.35-.17.65.65,0,0,1-.17-.34.47.47,0,0,1,.17-.34.71.71,0,0,1,.35-.17.47.47,0,0,1,.34.17.73.73,0,0,1,.17.34C93.5,73.52,93.5,73.69,93.42,73.77Zm3,0a.58.58,0,0,1-.34.17.43.43,0,0,1-.34-.17.58.58,0,0,1-.17-.34.43.43,0,0,1,.17-.34.73.73,0,0,1,.34-.17.45.45,0,0,1,.34.17.67.67,0,0,1,.18.34C96.5,73.52,96.5,73.69,96.41,73.77Zm3,0a.61.61,0,0,1-.34.17.58.58,0,0,1-.34-.17.6.6,0,0,1-.18-.34.44.44,0,0,1,.18-.34.65.65,0,0,1,.34-.17.45.45,0,0,1,.34.17.64.64,0,0,1,.17.34C99.5,73.52,99.5,73.69,99.41,73.77Zm3,0a.64.64,0,0,1-.35.17.43.43,0,0,1-.34-.17.65.65,0,0,1-.17-.34.47.47,0,0,1,.17-.34.73.73,0,0,1,.34-.17.47.47,0,0,1,.35.17.73.73,0,0,1,.17.34C102.49,73.52,102.49,73.69,102.41,73.77Z"/><path class="cls-1" d="M100.18,93a1.11,1.11,0,0,1-.34-.25.38.38,0,0,1,0-.43.63.63,0,0,0-.09-.76.65.65,0,0,0-.42-.17.63.63,0,0,0-.35.09.42.42,0,0,1-.43,0c-.17-.09-.25-.17-.25-.34a.64.64,0,0,0-.6-.43.63.63,0,0,0-.6.43,1.25,1.25,0,0,1-.26.34.42.42,0,0,1-.43,0c-.08-.09-.17-.09-.34-.09a.7.7,0,0,0-.43.17.63.63,0,0,0-.08.76.42.42,0,0,1,0,.43c-.09.17-.17.25-.34.25a.63.63,0,0,0,0,1.19,1.25,1.25,0,0,1,.34.25.42.42,0,0,1,0,.43.63.63,0,0,0,.08.76.65.65,0,0,0,.43.17.67.67,0,0,0,.34-.08c.09,0,.18-.09.26-.09h.17c.17.09.26.17.26.34a.64.64,0,0,0,.6.42.65.65,0,0,0,.6-.42,1.25,1.25,0,0,1,.25-.34.42.42,0,0,1,.43,0c.09.09.17.09.35.09h0a.65.65,0,0,0,.42-.17.64.64,0,0,0,.09-.77.36.36,0,0,1,0-.42c.08-.17.17-.26.34-.26a.62.62,0,0,0,.43-.59A.63.63,0,0,0,100.18,93Z"/><path class="cls-1" d="M111.91,85.72c-.26-.25-.6-.51-.86-.76a3.77,3.77,0,0,1-2.31.76,4.17,4.17,0,0,1-2.57-.93,2.88,2.88,0,0,0-3.85,0,3.88,3.88,0,0,1-5.14.09,2.86,2.86,0,0,0-3.85,0,4.21,4.21,0,0,1-2.57,1A4.13,4.13,0,0,1,88.2,85a3,3,0,0,0-3.86-.17l-.08.09c-.34.33-.69.67-1.11,1a9.47,9.47,0,0,0-3.6,7c0,6.44,8,11.7,18,11.7s18-5.26,18-11.7C115.5,90.22,114.22,87.84,111.91,85.72ZM89.82,95a1.79,1.79,0,0,1-.42,1.44,1.73,1.73,0,0,1-1.2.51h-.26a1.65,1.65,0,0,1-1.37.68,1.78,1.78,0,0,1-1.37-.68h-.26a1.73,1.73,0,0,1-1.2-.51A1.55,1.55,0,0,1,83.32,95a1.64,1.64,0,0,1-.69-1.35,1.77,1.77,0,0,1,.69-1.36,1.79,1.79,0,0,1,.42-1.44,1.73,1.73,0,0,1,1.2-.51h.26a1.68,1.68,0,0,1,1.37-.68,1.81,1.81,0,0,1,1.37.68h.26a1.73,1.73,0,0,1,1.2.51,1.55,1.55,0,0,1,.42,1.44,1.64,1.64,0,0,1,.69,1.36A1.52,1.52,0,0,1,89.82,95ZM101,95a1.77,1.77,0,0,1-.43,1.44,1.69,1.69,0,0,1-1.19.51h-.26a1.65,1.65,0,0,1-1.37.68,1.76,1.76,0,0,1-1.37-.68h-.26a1.71,1.71,0,0,1-1.2-.51A1.55,1.55,0,0,1,94.45,95a1.64,1.64,0,0,1-.69-1.35,1.77,1.77,0,0,1,.69-1.36,1.79,1.79,0,0,1,.42-1.44,1.71,1.71,0,0,1,1.2-.51h.26a1.68,1.68,0,0,1,1.37-.68,1.81,1.81,0,0,1,1.37.68h.26a1.69,1.69,0,0,1,1.19.51,1.53,1.53,0,0,1,.43,1.44,1.64,1.64,0,0,1,.69,1.36A1.52,1.52,0,0,1,101,95Zm10.87,0a1.79,1.79,0,0,1-.42,1.44,1.71,1.71,0,0,1-1.2.51h-.26a1.65,1.65,0,0,1-1.37.68,1.78,1.78,0,0,1-1.37-.68h-.26a1.69,1.69,0,0,1-1.19-.51,1.53,1.53,0,0,1-.43-1.44,1.64,1.64,0,0,1-.69-1.35,1.77,1.77,0,0,1,.69-1.36,1.77,1.77,0,0,1,.43-1.44,1.69,1.69,0,0,1,1.19-.51h.26a1.68,1.68,0,0,1,1.37-.68,1.81,1.81,0,0,1,1.37.68h.26a1.71,1.71,0,0,1,1.2.51,1.55,1.55,0,0,1,.42,1.44,1.64,1.64,0,0,1,.69,1.36A1.52,1.52,0,0,1,111.82,95Z"/><path class="cls-1" d="M111.05,93a1.25,1.25,0,0,1-.34-.25.42.42,0,0,1,0-.43.63.63,0,0,0-.08-.76.7.7,0,0,0-.43-.17.65.65,0,0,0-.35.09.4.4,0,0,1-.42,0c-.17-.09-.26-.17-.26-.34a.63.63,0,0,0-1.2,0,1.08,1.08,0,0,1-.26.34.4.4,0,0,1-.42,0c-.09-.09-.17-.09-.35-.09a.65.65,0,0,0-.42.17.61.61,0,0,0-.09.76.38.38,0,0,1,0,.43c-.09.17-.17.25-.34.25a.63.63,0,0,0,0,1.19,1.25,1.25,0,0,1,.34.25.38.38,0,0,1,0,.43.61.61,0,0,0,.09.76.6.6,0,0,0,.42.17.7.7,0,0,0,.35-.08c.08,0,.17-.09.25-.09h.17c.18.09.26.17.26.34a.64.64,0,0,0,1.2,0,1.25,1.25,0,0,1,.26-.34.4.4,0,0,1,.42,0c.09.09.18.09.35.09h0a.7.7,0,0,0,.43-.17.64.64,0,0,0,.08-.77.4.4,0,0,1,0-.42c.09-.17.17-.26.34-.26a.62.62,0,0,0,.43-.59A.63.63,0,0,0,111.05,93Z"/></g></svg>