<svg id="Layer_1" data-name="Layer 1" xmlns="http://www.w3.org/2000/svg" viewBox="0 0 150 150"><defs><style>.cls-1,.cls-2{fill:#bd6454;}.cls-1{fill-rule:evenodd;}</style></defs><path class="cls-1" d="M113.69,36.81C109.89,33,103.77,33,91.54,33s-18.36,0-22.17,3.79S65.58,46.74,65.58,59v1.54H74.7a9,9,0,0,1,9,9v41.72c2.29,0,4.89,0,7.84,0,4.17,0,7.64,0,10.53-.15v3.4a2.44,2.44,0,0,0,2.44,2.43h3.25a2.44,2.44,0,0,0,2.44-2.43v-4.79a10,10,0,0,0,3.49-2.27c3.81-3.79,3.81-9.91,3.81-22.15V59C117.5,46.74,117.5,40.62,113.69,36.81ZM110.2,75a2.44,2.44,0,0,1-4.88,0v-6.5a2.44,2.44,0,0,1,4.88,0Zm0-19.31a2.44,2.44,0,0,1-4.88,0V49.24a2.44,2.44,0,1,1,4.88,0Z"/><path class="cls-2" d="M56.22,99.24a6,6,0,0,1-6-6,1.93,1.93,0,1,0-3.85,0,9.84,9.84,0,0,0,9.82,9.85,1.93,1.93,0,0,0,0-3.86Zm0,0a6,6,0,0,1-6-6,1.93,1.93,0,1,0-3.85,0,9.84,9.84,0,0,0,9.82,9.85,1.93,1.93,0,0,0,0-3.86Zm18.48-35H37.77a5.28,5.28,0,0,0-5.27,5.28v42.18A5.27,5.27,0,0,0,37.77,117H75.06A5.27,5.27,0,0,0,80,111.71V69.53A5.28,5.28,0,0,0,74.7,64.25Zm-4.08,6.64,0,0a1.93,1.93,0,0,1,2.87,2.58l0,0a1.93,1.93,0,0,1-2.87-2.59Zm-4.57,32.19A13.91,13.91,0,1,1,65.58,83l.47.44a13.89,13.89,0,0,1,.57,19C66.44,102.68,66.25,102.88,66.05,103.08Zm-9.83-3.84a6,6,0,0,1-6-6,1.93,1.93,0,1,0-3.85,0,9.84,9.84,0,0,0,9.82,9.85,1.93,1.93,0,0,0,0-3.86Zm0,0a6,6,0,0,1-6-6,1.93,1.93,0,1,0-3.85,0,9.84,9.84,0,0,0,9.82,9.85,1.93,1.93,0,0,0,0-3.86Zm0,0a6,6,0,0,1-6-6,1.93,1.93,0,1,0-3.85,0,9.84,9.84,0,0,0,9.82,9.85,1.93,1.93,0,0,0,0-3.86Z"/></svg>