<svg id="Layer_1" data-name="Layer 1" xmlns="http://www.w3.org/2000/svg" viewBox="0 0 150 150"><defs><style>.cls-1{fill:#f5854f;}</style></defs><path class="cls-1" d="M113.72,33.83c-3.78-3.78-9.87-3.78-22-3.78H65.85c-12.17,0-18.26,0-22,3.78C40.38,37.26,40.07,42.6,40,52.65h4.3a3.23,3.23,0,0,1,0,6.45H40V69.86h4.31a3.23,3.23,0,0,1,0,6.46H40V87.08h4.31a3.23,3.23,0,0,1,0,6.45H40c0,10,.34,15.39,3.77,18.81,2.91,2.91,7.18,3.58,14.51,3.74v-86h6.46v86h26.9c12.17,0,18.26,0,22-3.79s3.78-9.86,3.78-22V55.87C117.5,43.7,117.5,37.61,113.72,33.83ZM98.13,67.71H76.61a3.23,3.23,0,0,1,0-6.46H98.13a3.23,3.23,0,0,1,0,6.46Zm0-15.06H76.61a3.23,3.23,0,0,1,0-6.46H98.13a3.23,3.23,0,1,1,0,6.46Z"/><path class="cls-1" d="M58.32,116.18h6.46v-.05c-2.38,0-4.53,0-6.46,0Z"/><path class="cls-1" d="M40,87.08h-4.3a3.23,3.23,0,1,0,0,6.45H40c0-1,0-2.09,0-3.23Z"/><path class="cls-1" d="M40,52.65H35.73a3.23,3.23,0,1,0,0,6.45H40V55.87C40,54.74,40,53.68,40,52.65Z"/><path class="cls-1" d="M35.73,69.86a3.23,3.23,0,0,0,0,6.46H40V69.86Z"/></svg>